<?xml version="1.0" encoding="utf-8"?>
<!-- Generator: Adobe Illustrator 14.0.0, SVG Export Plug-In . SVG Version: 6.00 Build 43363)  -->
<!DOCTYPE svg PUBLIC "-//W3C//DTD SVG 1.1//EN" "http://www.w3.org/Graphics/SVG/1.1/DTD/svg11.dtd">
<svg version="1.1" id="Layer_1" xmlns="http://www.w3.org/2000/svg" xmlns:xlink="http://www.w3.org/1999/xlink" x="0px" y="0px"
	 width="121.279px" height="30px" viewBox="0 0 121.279 30" enable-background="new 0 0 121.279 30" xml:space="preserve">
<g id="Layer_3">
	<text transform="matrix(1 0 0 1 10.4236 14.624)" font-family="'MyriadPro-Regular'" font-size="1.3909">BEN SMITH</text>
	<path fill="#E99930" d="M7.584,29.674c4.098,0,7.418-3.322,7.418-7.419v-7.418h7.379v0.001c0.014,0,0.026-0.001,0.039-0.001
		c4.098,0,7.418,3.321,7.418,7.418s-3.32,7.419-7.418,7.419c-0.013,0-0.025-0.001-0.039-0.002v0.002H7.584z"/>
	<path fill="#CD7228" d="M22.421,14.836c4.098,0,7.418,3.321,7.418,7.418c0,4.098-3.32,7.419-7.418,7.419
		c-0.013,0-0.025-0.002-0.039-0.002v0.002H7.584c3.478,0,6.396-2.394,7.198-5.622h7.639c0.992,0,1.797-0.805,1.797-1.797
		s-0.805-1.797-1.797-1.797V20.4h-7.418v-5.564h7.379v0.001C22.395,14.837,22.407,14.836,22.421,14.836z"/>
	<path fill="#BA5127" d="M7.584,29.674c2.342,0,4.431-1.087,5.789-2.781h9.048c2.562,0,4.638-2.076,4.638-4.638
		s-2.076-4.637-4.638-4.637h-7.418v-2.782h7.379v0.001c0.014,0,0.026-0.001,0.039-0.001c4.098,0,7.418,3.321,7.418,7.418
		c0,4.098-3.32,7.419-7.418,7.419c-0.013,0-0.025-0.001-0.039-0.002v0.002L7.584,29.674L7.584,29.674z"/>
	<circle opacity="0.54" fill="#FFFFFF" enable-background="new    " cx="22.421" cy="22.255" r="1.854"/>
	<circle opacity="0.49" fill="#F48C81" enable-background="new    " cx="22.421" cy="22.255" r="7.418"/>
	<path fill="#F6B933" d="M29.838,7.458L29.838,7.458c0-0.013,0.001-0.026,0.001-0.039c0-4.098-3.32-7.419-7.418-7.419
		c-4.097,0-7.418,3.321-7.418,7.418c0,0.013,0,0.026,0,0.039l0,0v7.379h7.418C26.505,14.836,29.817,11.536,29.838,7.458z"/>
	<path fill="#E99931" d="M24.218,7.418v7.198c3.217-0.8,5.604-3.699,5.621-7.159l0,0c0-0.013,0.001-0.026,0.001-0.039
		C29.839,3.321,26.518,0,22.421,0c-4.097,0-7.418,3.321-7.418,7.418c0,0.013,0,0.026,0,0.039l0,0v7.379h5.563V7.418h0.058
		c0-0.992,0.805-1.797,1.796-1.797C23.412,5.621,24.218,6.426,24.218,7.418z"/>
	<path fill="#B4984A" d="M27.057,7.418v5.789c1.686-1.352,2.769-3.424,2.78-5.75l0,0c0-0.013,0.001-0.026,0.001-0.039
		c0-4.097-3.32-7.418-7.418-7.418c-4.097,0-7.418,3.321-7.418,7.418c0,0.013,0,0.026,0,0.039l0,0v7.379h2.782V7.418
		c0-2.561,2.076-4.636,4.636-4.636C24.982,2.782,27.057,4.858,27.057,7.418z"/>
	<circle opacity="0.68" fill="#FFFFFF" enable-background="new    " cx="22.421" cy="7.418" r="1.797"/>
	<circle opacity="0.4" fill="#F8DE69" enable-background="new    " cx="22.421" cy="7.418" r="7.418"/>
	<path fill="#879896" d="M22.421,0c-4.097,0-7.418,3.321-7.418,7.418v7.418h-7.38l0,0c-0.013,0-0.025,0-0.039,0
		c-4.097,0-7.418-3.321-7.418-7.418S3.487,0,7.584,0C7.597,0,7.61,0,7.623,0.001V0H22.421z"/>
	<path fill="#41708B" d="M7.584,14.836c-4.097,0-7.418-3.321-7.418-7.418S3.487,0,7.584,0C7.597,0,7.61,0,7.623,0.001V0H22.42
		c-3.477,0-6.395,2.393-7.197,5.622H7.584c-0.992,0-1.797,0.805-1.797,1.797s0.805,1.796,1.797,1.796v0.058h7.418v5.564H7.623l0,0
		C7.61,14.836,7.597,14.836,7.584,14.836z"/>
	<path fill="#464F65" d="M22.421,0c-2.342,0-4.43,1.086-5.789,2.782H7.584c-2.561,0-4.637,2.076-4.637,4.636
		s2.076,4.636,4.637,4.636h7.418v2.782H7.623l0,0c-0.013,0-0.025,0-0.039,0c-4.097,0-7.418-3.321-7.418-7.418S3.487,0,7.584,0
		C7.597,0,7.61,0,7.623,0.001V0H22.421z"/>
	<circle opacity="0.64" fill="#FFFFFF" enable-background="new    " cx="7.584" cy="7.418" r="1.855"/>
	<circle opacity="0.48" fill="#4CC4DA" enable-background="new    " cx="7.584" cy="7.418" r="7.418"/>
	<path fill="#B59649" d="M0.166,7.418c0,4.097,3.321,7.418,7.418,7.418h7.418v7.379h-0.001c0,0.014,0.001,0.026,0.001,0.039
		c0,4.098-3.321,7.419-7.418,7.419s-7.418-3.321-7.418-7.419c0-0.013,0.001-0.025,0.001-0.039H0.166V7.418z"/>
	<path fill="#9A8757" d="M15.003,22.255c0,4.097-3.321,7.419-7.418,7.419s-7.418-3.322-7.418-7.419c0-0.013,0.001-0.026,0.001-0.039
		H0.166V7.418c0,3.477,2.394,6.395,5.622,7.198v7.639c0,0.992,0.805,1.797,1.797,1.797s1.796-0.805,1.796-1.797h0.059v-7.418h5.563
		v7.379h-0.001C15.002,22.229,15.003,22.242,15.003,22.255z"/>
	<path fill="#586E65" d="M0.166,7.418c0,2.342,1.086,4.43,2.782,5.789v9.047c0,2.561,2.076,4.637,4.637,4.637
		c2.562,0,4.637-2.076,4.637-4.637v-7.418h2.781v7.379h-0.001c0,0.014,0.001,0.026,0.001,0.039c0,4.098-3.321,7.419-7.418,7.419
		s-7.418-3.321-7.418-7.419c0-0.013,0.001-0.025,0.001-0.039H0.166V7.418z"/>
	<circle opacity="0.71" fill="#FFFFFF" enable-background="new    " cx="7.584" cy="22.255" r="1.854"/>
	<circle opacity="0.42" fill="#96CA67" enable-background="new    " cx="7.584" cy="22.255" r="7.418"/>
</g>
<g id="Layer_4">
	<g>
		<path fill="#586E65" d="M34.716,2.284h3.554c1.619,0,2.793,0.23,3.524,0.691c0.731,0.46,1.098,1.193,1.098,2.198
			c0,0.682-0.16,1.241-0.48,1.679c-0.32,0.437-0.746,0.7-1.276,0.789v0.078C41.859,7.88,42.38,8.182,42.7,8.624
			c0.32,0.443,0.48,1.031,0.48,1.765c0,1.041-0.376,1.853-1.129,2.436C41.3,13.408,40.278,13.7,38.988,13.7h-4.271L34.716,2.284
			L34.716,2.284z M37.136,6.804h1.404c0.656,0,1.131-0.102,1.425-0.305s0.441-0.539,0.441-1.007c0-0.437-0.16-0.75-0.48-0.94
			c-0.319-0.19-0.825-0.285-1.519-0.285h-1.271V6.804z M37.136,8.725V11.7h1.576c0.666,0,1.158-0.128,1.477-0.383
			c0.317-0.255,0.477-0.646,0.477-1.171c0-0.947-0.677-1.421-2.029-1.421H37.136z"/>
		<path fill="#9A8757" d="M52.033,13.698h-6.574V2.284h6.574v1.983h-4.154v2.506h3.865v1.983h-3.865V11.7h4.154V13.698z"/>
		<path fill="#CD7228" d="M64.542,13.698h-3.077l-4.966-8.635h-0.069c0.099,1.525,0.147,2.613,0.147,3.264v5.372h-2.163V2.284h3.053
			l4.958,8.549h0.056c-0.078-1.483-0.117-2.532-0.117-3.146V2.284h2.18L64.542,13.698L64.542,13.698z"/>
		<path fill="#464F65" d="M78.305,10.528c0,1.031-0.371,1.843-1.113,2.436c-0.741,0.593-1.773,0.89-3.096,0.89
			c-1.219,0-2.296-0.229-3.231-0.687v-2.249c0.77,0.343,1.422,0.585,1.955,0.726c0.534,0.14,1.021,0.21,1.464,0.21
			c0.531,0,0.938-0.102,1.223-0.304c0.283-0.203,0.426-0.505,0.426-0.906c0-0.224-0.062-0.423-0.188-0.597
			c-0.126-0.174-0.308-0.342-0.55-0.504c-0.242-0.161-0.735-0.419-1.479-0.773c-0.697-0.328-1.221-0.643-1.568-0.944
			c-0.35-0.302-0.628-0.653-0.836-1.054s-0.312-0.869-0.312-1.405c0-1.01,0.343-1.804,1.027-2.381
			c0.685-0.578,1.63-0.867,2.838-0.867c0.594,0,1.159,0.07,1.698,0.211c0.539,0.14,1.102,0.338,1.689,0.593l-0.78,1.881
			c-0.608-0.25-1.112-0.424-1.512-0.523c-0.396-0.099-0.79-0.148-1.175-0.148c-0.458,0-0.81,0.107-1.054,0.32
			c-0.245,0.213-0.367,0.492-0.367,0.835c0,0.213,0.05,0.399,0.148,0.558c0.098,0.159,0.256,0.312,0.473,0.46
			c0.216,0.148,0.727,0.416,1.534,0.8c1.065,0.51,1.798,1.022,2.192,1.534C78.107,9.156,78.305,9.784,78.305,10.528z"/>
		<path fill="#E99931" d="M85.208,13.698L82.46,4.743H82.39c0.099,1.822,0.147,3.038,0.147,3.646v5.309h-2.163V2.284h3.295
			l2.701,8.729h0.047l2.865-8.729h3.295v11.415h-2.256V8.295c0-0.255,0.004-0.549,0.012-0.882s0.043-1.218,0.105-2.655h-0.07
			l-2.943,8.94H85.208z"/>
		<path fill="#586E65" d="M95.451,13.698V2.284h2.421v11.415L95.451,13.698L95.451,13.698z"/>
		<path fill="#BA5127" d="M105.148,13.698h-2.42v-9.4h-3.101V2.284h8.619v2.014h-3.1L105.148,13.698L105.148,13.698z"/>
		<path fill="#41708B" d="M119.358,13.698h-2.412V8.771h-4.521v4.927h-2.421V2.284h2.421v4.474h4.521V2.284h2.412V13.698z"/>
	</g>
	<g>
		<path fill="#605F5F" d="M38.368,19.545c-0.993,0-1.774,0.318-2.345,0.953c-0.57,0.636-0.855,1.506-0.855,2.609
			c0,1.131,0.27,2.009,0.808,2.633c0.538,0.625,1.307,0.938,2.307,0.938c0.664,0,1.274-0.085,1.831-0.255v0.487
			c-0.524,0.186-1.177,0.275-1.96,0.275c-1.112,0-1.988-0.358-2.626-1.078c-0.639-0.717-0.958-1.722-0.958-3.01
			c0-0.806,0.152-1.516,0.458-2.129c0.305-0.613,0.744-1.088,1.315-1.422c0.572-0.334,1.237-0.501,1.996-0.501
			c0.772,0,1.465,0.146,2.074,0.435l-0.222,0.498C39.611,19.689,39.004,19.545,38.368,19.545z"/>
		<path fill="#605F5F" d="M47.975,23.629v3.449h-0.553v-7.917h1.885c0.981,0,1.708,0.181,2.177,0.544s0.704,0.909,0.704,1.638
			c0,0.531-0.141,0.979-0.42,1.345c-0.28,0.363-0.705,0.625-1.275,0.785l2.15,3.605h-0.661l-2.042-3.449H47.975z M47.975,23.152
			h1.511c0.668,0,1.186-0.149,1.554-0.447c0.369-0.298,0.553-0.737,0.553-1.318c0-0.604-0.181-1.041-0.542-1.316
			c-0.36-0.273-0.949-0.41-1.766-0.41h-1.311L47.975,23.152L47.975,23.152z"/>
		<path fill="#605F5F" d="M63.886,27.078h-4.327v-7.917h4.327v0.509h-3.775v2.995h3.562v0.509h-3.562v3.396h3.775V27.078z"/>
		<path fill="#605F5F" d="M75.037,24.284H71.82l-1.104,2.794h-0.611l3.185-7.95h0.353l3.118,7.95h-0.621L75.037,24.284z
			 M72.02,23.785h2.832l-1.077-2.854c-0.091-0.225-0.199-0.535-0.325-0.933c-0.098,0.347-0.204,0.661-0.319,0.942L72.02,23.785z"/>
		<path fill="#605F5F" d="M85.488,27.078H84.93v-7.396h-2.573v-0.521h5.703v0.521h-2.572V27.078z"/>
		<path fill="#605F5F" d="M94.781,27.078v-7.917h0.553v7.917H94.781z"/>
		<path fill="#605F5F" d="M107.8,19.161h0.603l-2.963,7.917h-0.487L102,19.161h0.59l1.993,5.388
			c0.305,0.812,0.507,1.424,0.612,1.831c0.072-0.271,0.215-0.69,0.428-1.262L107.8,19.161z"/>
		<path fill="#605F5F" d="M119.394,27.078h-4.327v-7.917h4.327v0.509h-3.774v2.995h3.562v0.509h-3.562v3.396h3.774V27.078z"/>
	</g>
</g>
</svg>
