<?xml version="1.0" encoding="utf-8"?>
<!-- Generator: Adobe Illustrator 14.0.0, SVG Export Plug-In . SVG Version: 6.00 Build 43363)  -->
<!DOCTYPE svg PUBLIC "-//W3C//DTD SVG 1.1//EN" "http://www.w3.org/Graphics/SVG/1.1/DTD/svg11.dtd">
<svg version="1.1" id="Layer_1" xmlns="http://www.w3.org/2000/svg" xmlns:xlink="http://www.w3.org/1999/xlink" x="0px" y="0px"
	 width="121.279px" height="30px" viewBox="0 0 121.279 30" enable-background="new 0 0 121.279 30" xml:space="preserve">
<path fill="#893B20" d="M29.778,30h21.979v-6.747H37.51V18.17h13.936v-6.746H37.51V6.747h14.248V0H29.778V30z M56.185,30h21.979
	v-6.747H63.916V18.17H77.85v-6.746H63.916V6.747h14.249V0H56.185V30z M25.441,9.985C25.441,4.407,21.666,0,15.013,0H0v6.747h13.847
	c2.021,0,3.729,1.169,3.729,3.193c0,2.114-1.708,3.238-3.729,3.238H0V30h7.731V19.926h3.956L16.721,30h8.854l-6.113-11.021
	C22.25,17.991,25.441,15.202,25.441,9.985z M102.683,16.507L90.547,0h-7.956v30h7.731V12.639L102.998,30h7.462V0h-7.774
	L102.683,16.507L102.683,16.507z M114.557,23.277V30h6.722v-6.723H114.557z"/>
<g id="Layer_2">
</g>
<circle opacity="0.67" fill="#346614" cx="53.889" cy="15" r="13.25"/>
<path opacity="0.61" fill="#63962D" d="M121.279,29.887H95.747V0.113h25.532V29.887z M63.831,29.887h25.532V0.113H63.831V29.887z
	 M31.915,29.887h25.533V0.113H31.915V29.887z M0,29.887h25.533V0.113H0V29.887z"/>
</svg>
