<?xml version="1.0" encoding="utf-8"?>
<!-- Generator: Adobe Illustrator 14.0.0, SVG Export Plug-In . SVG Version: 6.00 Build 43363)  -->
<!DOCTYPE svg PUBLIC "-//W3C//DTD SVG 1.1//EN" "http://www.w3.org/Graphics/SVG/1.1/DTD/svg11.dtd">
<svg version="1.1" id="Layer_1" xmlns="http://www.w3.org/2000/svg" xmlns:xlink="http://www.w3.org/1999/xlink" x="0px" y="0px"
	 width="118.5px" height="118.25px" viewBox="-3.736 -85 118.5 118.25" enable-background="new -3.736 -85 118.5 118.25"
	 xml:space="preserve">
<g id="Layer_2">
	<path opacity="0.83" fill="none" stroke="#032E44" stroke-width="7" d="M83.391-81.514H27.8c-15.355,0-27.8,12.445-27.8,27.8V1.884
		c0,15.345,12.445,27.789,27.8,27.789h55.597v-0.426c15.204,0,27.551-12.219,27.786-27.363h0.008v-55.598
		C111.19-69.069,98.744-81.514,83.391-81.514z"/>
	<path fill="#FFFFFF" d="M83.391-81.514H27.8c-15.355,0-27.8,12.445-27.8,27.8V1.884c0,15.345,12.445,27.789,27.8,27.789h55.597
		v-0.426c15.204,0,27.551-12.219,27.786-27.363h0.008v-55.598C111.19-69.069,98.744-81.514,83.391-81.514z"/>
	<path fill="#A5D5EF" d="M83.391-81.514H27.8c-15.355,0-27.8,12.445-27.8,27.8V1.884c0,15.345,12.445,27.789,27.8,27.789h55.597
		v-0.426c15.204,0,27.551-12.219,27.786-27.363h0.008v-55.598C111.19-69.069,98.744-81.514,83.391-81.514z M27.8,15.775
		c-7.678,0-13.9-6.221-13.9-13.899c0-7.681,6.222-13.903,13.9-13.903c7.673,0,13.896,6.222,13.896,13.903
		C41.696,9.554,35.473,15.775,27.8,15.775z M27.8-39.817c-7.678,0-13.9-6.223-13.9-13.896c0-7.679,6.222-13.902,13.9-13.902
		c7.673,0,13.896,6.223,13.896,13.902C41.696-46.041,35.473-39.817,27.8-39.817z M83.391,15.775
		c-7.677,0-13.899-6.221-13.899-13.899c0-7.681,6.223-13.903,13.899-13.903c7.675,0,13.896,6.222,13.896,13.903
		C97.292,9.554,91.066,15.775,83.391,15.775z M83.391-39.817c-7.677,0-13.899-6.223-13.899-13.896
		c0-7.679,6.223-13.902,13.899-13.902c7.675,0,13.896,6.223,13.896,13.902C97.292-46.041,91.066-39.817,83.391-39.817z"/>
	<path fill="#3D99D8" d="M83.391-67.616c7.675,0,13.896,6.223,13.896,13.902h13.902c0-15.355-12.446-27.8-27.794-27.8
		c-15.356,0-27.797,12.445-27.797,27.8h13.899C69.496-61.393,75.718-67.616,83.391-67.616z"/>
	
		<linearGradient id="SVGID_1_" gradientUnits="userSpaceOnUse" x1="460.0593" y1="708.8369" x2="408.8039" y2="730.375" gradientTransform="matrix(1 0 0 1 -356 -762)">
		<stop  offset="0.1534" style="stop-color:#3D99D8"/>
		<stop  offset="0.5723" style="stop-color:#1770C0"/>
		<stop  offset="1" style="stop-color:#2E4242"/>
	</linearGradient>
	<path fill="url(#SVGID_1_)" d="M83.391-39.817c-7.677,0-13.899-6.223-13.899-13.896H55.588c0,15.35,12.445,27.794,27.8,27.794
		c15.353,0,27.797-12.444,27.797-27.794H97.292C97.292-46.041,91.066-39.817,83.391-39.817z"/>
	
		<linearGradient id="SVGID_2_" gradientUnits="userSpaceOnUse" x1="458.7283" y1="709.3936" x2="426.5216" y2="722.9273" gradientTransform="matrix(1 0 0 1 -356 -762)">
		<stop  offset="0.0616" style="stop-color:#328DD1"/>
		<stop  offset="0.1534" style="stop-color:#3D99D8"/>
		<stop  offset="0.5723" style="stop-color:#1770C0"/>
		<stop  offset="1" style="stop-color:#2E4242"/>
	</linearGradient>
	<path opacity="0.72" fill="url(#SVGID_2_)" enable-background="new    " d="M84.912-39.903c-0.499,0.056-1.013,0.082-1.516,0.082
		c-7.679,0-13.9-6.222-13.9-13.897H55.599c0,15.351,12.438,27.796,27.792,27.796c5.896,0,11.357-1.843,15.854-4.969
		C94.175-33.435,88.845-35.887,84.912-39.903z"/>
	
		<linearGradient id="SVGID_3_" gradientUnits="userSpaceOnUse" x1="-300.8088" y1="-692.7808" x2="-352.0646" y2="-671.2426" gradientTransform="matrix(-1 0 0 -1 -239.1626 -690.998)">
		<stop  offset="0.1534" style="stop-color:#3D99D8"/>
		<stop  offset="0.5723" style="stop-color:#1770C0"/>
		<stop  offset="1" style="stop-color:#2E4242"/>
	</linearGradient>
	<path fill="url(#SVGID_3_)" d="M83.391-12.02c7.675,0,13.896,6.222,13.896,13.903h13.902c0-15.351-12.446-27.796-27.794-27.796
		c-15.356,0-27.797,12.445-27.797,27.796h13.899C69.496-5.798,75.718-12.02,83.391-12.02z"/>
	
		<linearGradient id="SVGID_4_" gradientUnits="userSpaceOnUse" x1="458.575" y1="746.5908" x2="427.2807" y2="759.7411" gradientTransform="matrix(1 0 0 1 -356 -762)">
		<stop  offset="0.1534" style="stop-color:#3D99D8"/>
		<stop  offset="0.5723" style="stop-color:#1770C0"/>
		<stop  offset="1" style="stop-color:#2E4242"/>
	</linearGradient>
	<path opacity="0.69" fill="url(#SVGID_4_)" enable-background="new    " d="M83.391-25.92c-5.543,0-10.705,1.633-15.041,4.432
		c3.516,3.604,8.819,5.748,13.306,8.173c0.711,0.419,1.423,0.857,2.086,1.316c7.521,0.183,13.55,6.325,13.55,13.89h13.904
		C111.19-13.475,98.744-25.92,83.391-25.92z"/>
	<path fill="#3D99D8" d="M55.593-53.714h13.903c0,20.849,41.694,24.32,41.694,55.598H97.292
		C97.292-18.971,55.593-22.444,55.593-53.714z"/>
	<path fill="#3D99D8" d="M83.391,15.775c-7.677,0-13.899-6.221-13.899-13.899H55.588c0,15.348,12.445,27.793,27.8,27.793
		c15.353,0,27.797-12.445,27.797-27.793H97.292C97.292,9.554,91.066,15.775,83.391,15.775z"/>
	<path fill="#3D99D8" d="M69.496-53.714c0-7.679,6.222-13.902,13.9-13.902c7.673,0,13.896,6.223,13.896,13.902h13.904
		c0-15.355-12.448-27.8-27.797-27.8c-15.354,0-27.792,12.445-27.792,27.8c0,31.27,41.688,34.75,41.688,55.598
		c0,7.673-6.226,13.897-13.896,13.897c-7.678,0-13.9-6.224-13.9-13.897H55.603c0,15.345,12.437,27.789,27.793,27.789
		c15.352,0,27.794-12.444,27.794-27.789C111.19-29.394,69.496-32.865,69.496-53.714z"/>
	<path fill="#3D99D8" d="M69.496-53.714c0-7.679,6.222-13.902,13.9-13.902c7.673,0,13.896,6.223,13.896,13.902h13.904
		c0-15.355-12.448-27.8-27.797-27.8c-15.354,0-27.792,12.445-27.792,27.8c0,31.27,41.688,34.75,41.688,55.598
		c0,7.673-6.226,13.897-13.896,13.897c-7.678,0-13.9-6.224-13.9-13.897H55.603c0,15.345,12.437,27.789,27.793,27.789
		c15.352,0,27.794-12.444,27.794-27.789C111.19-29.394,69.496-32.865,69.496-53.714z"/>
	<path opacity="0.54" fill="#A2D6F4" enable-background="new    " d="M83.391-78.04c14.195,0,25.916,10.603,27.669,24.326h0.127
		c0-15.355-12.446-27.8-27.796-27.8c-15.354,0-27.799,12.445-27.799,27.8c0,0.317,0.018,0.627,0.025,0.938
		C56.946-66.948,68.872-78.04,83.391-78.04z"/>
	
		<linearGradient id="SVGID_5_" gradientUnits="userSpaceOnUse" x1="411.5925" y1="777.3027" x2="467.1873" y2="777.3027" gradientTransform="matrix(1 0 0 1 -356 -762)">
		<stop  offset="0.1534" style="stop-color:#3D99D8"/>
		<stop  offset="0.5723" style="stop-color:#1770C0"/>
		<stop  offset="1" style="stop-color:#2E4242"/>
	</linearGradient>
	<path opacity="0.35" fill="url(#SVGID_5_)" enable-background="new    " d="M83.391,26.199c-14.198,0-25.91-10.603-27.672-24.323
		h-0.127c0,15.348,12.444,27.793,27.799,27.793c15.353,0,27.796-12.445,27.796-27.793c0-0.313-0.011-0.627-0.017-0.941
		C109.839,15.11,97.912,26.199,83.391,26.199z"/>
	<path opacity="0.55" fill="#FFFFFF" enable-background="new    " d="M65.316-71.387c-0.26-2.101,8.873-8.304,9.84-5.413
		C76.115-73.913,65.476-70.06,65.316-71.387z"/>
	
		<linearGradient id="SVGID_6_" gradientUnits="userSpaceOnUse" x1="382.8152" y1="709.5781" x2="349.169" y2="753.8556" gradientTransform="matrix(1 0 0 1 -356 -762)">
		<stop  offset="0.1534" style="stop-color:#3D99D8"/>
		<stop  offset="0.5723" style="stop-color:#1770C0"/>
		<stop  offset="1" style="stop-color:#2E4242"/>
	</linearGradient>
	<path fill="url(#SVGID_6_)" d="M27.8-81.514c-15.355,0-27.8,12.445-27.8,27.8v27.794h27.8c15.352,0,27.8-12.444,27.8-27.794
		C55.593-69.069,43.151-81.514,27.8-81.514z M27.8-39.817c-7.678,0-13.9-6.223-13.9-13.896c0-7.679,6.222-13.902,13.9-13.902
		c7.673,0,13.896,6.223,13.896,13.902C41.696-46.041,35.473-39.817,27.8-39.817z"/>
	
		<linearGradient id="SVGID_7_" gradientUnits="userSpaceOnUse" x1="389.4451" y1="748.502" x2="353.3293" y2="790.7629" gradientTransform="matrix(1 0 0 1 -356 -762)">
		<stop  offset="0.1534" style="stop-color:#3D99D8"/>
		<stop  offset="0.5723" style="stop-color:#1770C0"/>
		<stop  offset="1" style="stop-color:#2E4242"/>
	</linearGradient>
	<path fill="url(#SVGID_7_)" d="M55.593,1.876c0-15.351-12.448-27.796-27.793-27.796H0V1.876C0,17.225,12.445,29.67,27.8,29.67
		C43.151,29.676,55.593,17.233,55.593,1.876z M13.9,1.876c0-7.681,6.222-13.903,13.9-13.903c7.673,0,13.896,6.222,13.896,13.903
		c0,7.678-6.223,13.899-13.896,13.899C20.122,15.775,13.9,9.554,13.9,1.876z"/>
	<path opacity="0.54" fill="#A2D6F4" enable-background="new    " d="M27.8-78.04c14.195,0,25.907,10.603,27.668,24.326h0.131
		c0-15.355-12.448-27.8-27.8-27.8c-15.355,0-27.8,12.445-27.8,27.8c0,0.317,0.011,0.627,0.018,0.938
		C1.353-66.948,13.28-78.04,27.8-78.04z"/>
	
		<linearGradient id="SVGID_8_" gradientUnits="userSpaceOnUse" x1="355.9998" y1="777.3027" x2="411.5994" y2="777.3027" gradientTransform="matrix(1 0 0 1 -356 -762)">
		<stop  offset="0.1534" style="stop-color:#3D99D8"/>
		<stop  offset="0.5723" style="stop-color:#1770C0"/>
		<stop  offset="1" style="stop-color:#2E4242"/>
	</linearGradient>
	<path opacity="0.35" fill="url(#SVGID_8_)" enable-background="new    " d="M27.8,26.199c-14.195,0-25.915-10.603-27.673-24.323H0
		C0,17.225,12.445,29.67,27.8,29.67c15.352,0,27.8-12.445,27.8-27.793c0-0.313-0.018-0.627-0.025-0.941
		C54.243,15.11,42.316,26.199,27.8,26.199z"/>
	<path opacity="0.55" fill="#FFFFFF" enable-background="new    " d="M10.428-71.387c-0.252-2.092,8.877-8.299,9.84-5.413
		C21.235-73.913,10.591-70.06,10.428-71.387z"/>
</g>
</svg>
