<?xml version="1.0" encoding="utf-8"?>
<!-- Generator: Adobe Illustrator 14.0.0, SVG Export Plug-In . SVG Version: 6.00 Build 43363)  -->
<!DOCTYPE svg PUBLIC "-//W3C//DTD SVG 1.1//EN" "http://www.w3.org/Graphics/SVG/1.1/DTD/svg11.dtd">
<svg version="1.1" id="Layer_1" xmlns="http://www.w3.org/2000/svg" xmlns:xlink="http://www.w3.org/1999/xlink" x="0px" y="0px"
	 width="136.667px" height="119.333px" viewBox="0 0 136.667 119.333" enable-background="new 0 0 136.667 119.333"
	 xml:space="preserve">
<g opacity="0.19">
	<path fill="#F9CCC7" d="M73.919,112.479c-0.659,0-1.349-0.071-2.061-0.212c-0.06,0.003-0.119,0.005-0.179,0.005
		c-0.56,0-1.124-0.157-1.626-0.484l-0.066-0.044c-3.296-1.145-7.09-3.631-11.579-7.586l-7.191,3.795
		c-0.425,0.226-0.842,0.415-1.257,0.591l-0.339,0.135c-0.408,0.16-0.817,0.304-1.217,0.417c-0.033,0.01-0.067,0.019-0.101,0.026
		c-0.45,0.122-0.825,0.199-1.195,0.263l-0.337,0.05c-0.388,0.057-0.773,0.092-1.146,0.104c-0.056,0.002-0.317,0.006-0.317,0.006
		c-0.339,0-0.672-0.019-1.001-0.048c-0.129-0.014-0.223-0.023-0.314-0.036c-0.317-0.039-0.671-0.099-1.019-0.179
		c-0.047-0.008-0.057-0.011-0.118-0.026c-0.383-0.093-0.764-0.212-1.166-0.364c-0.024-0.009-0.111-0.044-0.135-0.054
		c-0.374-0.149-0.699-0.295-1.012-0.459c-0.006-0.004-0.102-0.053-0.143-0.075c-0.131-0.071-0.259-0.147-0.386-0.225l-12.976-7.602
		c-0.495-0.24-0.982-0.527-1.451-0.854c-0.023-0.016-0.047-0.032-0.07-0.049c-3.728-2.646-6.137-7.84-6.137-13.232V59.565
		c-0.215-0.383-0.397-0.777-0.544-1.179c-0.015-0.04-0.049-0.144-0.062-0.184c-0.107-0.319-0.188-0.633-0.252-0.955
		c-0.023-0.114-0.042-0.215-0.058-0.321c-0.06-0.388-0.089-0.755-0.091-1.111c-0.937-18.948,11.686-25.39,17.162-27.282l0.182-0.063
		c0.394-0.145,0.822-0.217,1.299-0.217c0.058,0,0.285,0.007,0.338,0.011c0.3,0.021,0.623,0.07,0.984,0.148
		c0.023,0.005,0.048,0.011,0.075,0.018c0.208,0.046,0.432,0.104,0.671,0.172c3.037-1.576,6.654-3.471,10.409-5.44l3.879-2.037
		c5.635-2.959,11.217-5.889,15.285-7.99l3.951-2.016c0.121-0.061,0.249-0.119,0.376-0.175l0.102-0.045l0.128-0.066
		c0.121-0.062,0.246-0.115,0.374-0.16c1.862-0.809,3.63-1.218,5.258-1.218c1.225,0,2.38,0.229,3.436,0.682
		c0.154,0.06,0.305,0.132,0.45,0.218l0.008,0.004c0.355,0.18,0.685,0.375,0.999,0.595l11.785,7.027
		c0.429,0.15,0.849,0.338,1.252,0.56l0.137,0.075c0.339,0.2,0.596,0.366,0.84,0.55c0,0,0.058,0.044,0.086,0.066
		c0.436,0.336,0.846,0.723,1.221,1.15c0.087,0.097,0.151,0.17,0.213,0.246c0.168,0.207,0.327,0.412,0.478,0.627
		c0.07,0.101,0.134,0.201,0.197,0.303c0.231,0.362,0.438,0.726,0.625,1.104c0.081,0.16,0.167,0.334,0.245,0.515
		c0.08,0.183,0.16,0.374,0.236,0.569c0.101,0.258,0.191,0.527,0.277,0.799c0.064,0.195,0.133,0.422,0.195,0.656
		c0.075,0.277,0.148,0.567,0.212,0.865l0.091,0.428c0.078,0.412,0.145,0.806,0.198,1.214l0.021,0.181
		c0.051,0.42,0.087,0.829,0.115,1.242l0.021,0.34c0.026,0.489,0.042,0.952,0.042,1.426v13.671c0.093,0.018,0.184,0.037,0.275,0.058
		c0.24,0.053,0.5,0.123,0.76,0.202c0.239,0.072,0.488,0.16,0.741,0.256c0.277,0.106,0.546,0.213,0.818,0.341
		c0.17,0.08,0.334,0.167,0.496,0.254l0.094,0.051c0.338,0.18,0.611,0.328,0.889,0.501c0.102,0.064,0.194,0.129,0.286,0.196
		c0.674,0.444,1.344,0.966,1.973,1.539c0.498,0.277,0.996,0.604,1.51,0.994c0.151,0.112,0.24,0.179,0.33,0.25
		c0.275,0.224,0.531,0.446,0.78,0.678c0.12,0.11,0.25,0.238,0.381,0.368c0,0.001,0.073,0.074,0.074,0.074
		c0.219,0.217,0.435,0.435,0.647,0.673c0.259,0.289,0.514,0.604,0.769,0.93c0.229,0.295,0.442,0.592,0.652,0.897
		c0.167,0.24,0.338,0.494,0.507,0.758c0.163,0.26,0.31,0.502,0.454,0.752c0.189,0.329,0.37,0.669,0.549,1.016l0.087,0.166
		c0.082,0.154,0.163,0.308,0.24,0.47c0.264,0.552,0.51,1.127,0.745,1.725c0.058,0.145,0.11,0.292,0.163,0.44l0.067,0.187
		c0.17,0.463,0.328,0.927,0.478,1.403c0.09,0.297,0.155,0.511,0.216,0.729c0.162,0.565,0.315,1.169,0.453,1.791l0.075,0.304
		c0.162,0.771,0.297,1.54,0.414,2.349c0.023,0.158,0.086,0.674,0.086,0.674c0.078,0.611,0.143,1.232,0.191,1.869l0.055,0.713
		c0.06,0.966,0.088,1.824,0.088,2.642c0,20.843-7.656,28.004-14.078,30.341c-0.336,0.121-0.666,0.228-1,0.323
		c-0.059,0.018-0.151,0.042-0.246,0.065c-0.277,0.074-0.518,0.135-0.759,0.186c-0.076,0.017-0.18,0.036-0.283,0.056
		c-0.294,0.055-0.517,0.095-0.736,0.125c0,0-0.362,0.045-0.373,0.046c-0.222,0.025-0.443,0.047-0.663,0.061
		c-0.084,0.007-0.215,0.014-0.347,0.02c-0.218,0.009-0.41,0.013-0.601,0.013l-0.412-0.005c-0.293-0.012-0.519-0.025-0.745-0.045
		l-0.31-0.027c-0.28-0.031-0.538-0.069-0.796-0.111c-0.112-0.018-0.202-0.032-0.291-0.051c-0.99-0.182-2.025-0.505-3.014-0.949
		c-0.02-0.008-0.097-0.044-0.115-0.053c-0.261-0.119-0.558-0.269-0.853-0.429c-0.017-0.01-0.108-0.062-0.125-0.071
		c-0.294-0.166-0.548-0.319-0.8-0.481l-0.236-0.159c-0.217-0.146-0.456-0.318-0.693-0.501l-0.177-0.137
		c-0.248-0.195-0.484-0.396-0.716-0.605l-0.18-0.161c-0.218-0.2-0.452-0.433-0.679-0.67l-0.14-0.145
		c-0.161-0.171-0.326-0.356-0.491-0.55c-1.006-0.753-1.943-1.612-2.802-2.568c-0.274,0.095-0.542,0.18-0.811,0.256
		c-0.044,0.015-0.161,0.045-0.279,0.073c-0.228,0.062-0.457,0.119-0.689,0.171l-0.311,0.06c-0.294,0.056-0.51,0.094-0.726,0.124
		l-0.354,0.044c-0.272,0.03-0.491,0.052-0.713,0.064c-0.032,0.004-0.332,0.019-0.358,0.021c0.571,0.491,0.941,1.184,1.025,1.942
		c0.098,0.874,0.843,8.656-2.874,12.809C78.308,111.585,76.267,112.479,73.919,112.479L73.919,112.479z"/>
	<path fill="#5CA5BC" d="M78.847,12.455c0.877,0,1.662,0.169,2.355,0.484l0.003-0.002l0.102,0.06
		c0.279,0.136,0.544,0.292,0.796,0.474l12.113,7.223l-0.01,0.016c0.006,0.001,0.011,0.005,0.018,0.006c-0.001,0-0.004,0-0.005-0.001
		c0.001,0.001,0.004,0.001,0.005,0.001c0.394,0.11,0.76,0.263,1.104,0.453c0.045,0.023,0.088,0.047,0.132,0.072
		c0.167,0.099,0.332,0.205,0.488,0.322c0.011,0.007,0.02,0.016,0.029,0.023c0.298,0.227,0.574,0.487,0.828,0.776
		c0.048,0.054,0.098,0.108,0.144,0.164c0.116,0.143,0.231,0.289,0.339,0.443c0.052,0.075,0.1,0.155,0.149,0.234
		c0.16,0.249,0.31,0.514,0.448,0.793c0.062,0.125,0.125,0.25,0.182,0.38c0.065,0.149,0.13,0.301,0.19,0.457
		c0.078,0.201,0.147,0.409,0.214,0.618c0.057,0.172,0.109,0.347,0.157,0.525c0.063,0.234,0.123,0.47,0.175,0.713
		c0.028,0.129,0.057,0.257,0.083,0.39c0.063,0.333,0.12,0.67,0.166,1.019c0.008,0.058,0.013,0.115,0.02,0.173
		c0.042,0.347,0.073,0.702,0.098,1.062c0.007,0.109,0.013,0.217,0.02,0.326c0.021,0.407,0.036,0.817,0.036,1.238
		c0,0,0,0.375,0,1.034c0,2.487,0,9.104,0,15.604c0.16-0.038,0.315-0.082,0.479-0.104c0.121-0.017,0.246-0.014,0.367-0.022
		c0.154-0.01,0.309-0.018,0.465-0.018c0.072,0,0.145,0.001,0.218,0.005c0.157,0.008,0.317,0.032,0.476,0.052
		c0.202,0.026,0.401,0.058,0.605,0.104c0.184,0.041,0.367,0.09,0.552,0.146c0.181,0.054,0.36,0.119,0.543,0.188
		c0.207,0.08,0.412,0.16,0.62,0.257c0.149,0.07,0.3,0.155,0.449,0.234c0.236,0.126,0.471,0.249,0.708,0.397
		c0.063,0.04,0.125,0.091,0.189,0.133c0.645,0.425,1.283,0.927,1.903,1.523c0.49,0.245,0.976,0.558,1.456,0.921
		c0.091,0.068,0.182,0.133,0.272,0.206c0.203,0.165,0.406,0.341,0.604,0.526c0.116,0.107,0.229,0.22,0.344,0.333
		c0.189,0.188,0.379,0.375,0.563,0.582c0.221,0.246,0.433,0.511,0.646,0.783c0.185,0.239,0.366,0.491,0.545,0.75
		c0.151,0.218,0.301,0.439,0.448,0.67c0.13,0.208,0.258,0.419,0.384,0.638c0.164,0.285,0.322,0.583,0.479,0.887
		c0.096,0.187,0.197,0.366,0.29,0.56c0.232,0.488,0.451,1,0.661,1.532c0.072,0.184,0.138,0.379,0.208,0.569
		c0.149,0.408,0.292,0.826,0.427,1.256c0.064,0.212,0.13,0.424,0.19,0.64c0.151,0.527,0.289,1.073,0.414,1.635
		c0.023,0.111,0.055,0.219,0.081,0.332c0.142,0.676,0.263,1.378,0.367,2.098c0.029,0.204,0.053,0.416,0.079,0.623
		c0.071,0.562,0.131,1.134,0.176,1.72c0.019,0.229,0.037,0.454,0.053,0.686c0.049,0.793,0.081,1.602,0.081,2.439
		c0,14.903-4.18,24.638-12.104,27.521c-0.263,0.095-0.527,0.181-0.795,0.257c-0.082,0.024-0.165,0.043-0.249,0.065
		c-0.184,0.05-0.367,0.097-0.553,0.136c-0.098,0.021-0.197,0.038-0.295,0.057c-0.171,0.032-0.344,0.063-0.515,0.087
		c-0.103,0.014-0.204,0.025-0.306,0.038c-0.171,0.02-0.342,0.036-0.512,0.047c-0.1,0.008-0.2,0.013-0.302,0.018
		c-0.152,0.006-0.305,0.009-0.456,0.009c-0.022,0-0.044,0-0.065,0c-0.095-0.001-0.19-0.002-0.285-0.004
		c-0.185-0.008-0.368-0.02-0.552-0.035c-0.084-0.008-0.166-0.013-0.249-0.021c-0.208-0.023-0.414-0.054-0.62-0.088
		c-0.058-0.011-0.117-0.017-0.174-0.028c-0.816-0.15-1.617-0.399-2.394-0.748c-0.021-0.01-0.04-0.019-0.059-0.027
		c-0.235-0.107-0.468-0.225-0.698-0.351c-0.043-0.023-0.086-0.049-0.128-0.072c-0.208-0.117-0.412-0.241-0.614-0.371
		c-0.051-0.034-0.101-0.067-0.151-0.103c-0.193-0.131-0.384-0.268-0.573-0.413c-0.05-0.038-0.103-0.079-0.152-0.118
		c-0.189-0.149-0.375-0.308-0.557-0.472c-0.046-0.041-0.094-0.081-0.14-0.124c-0.188-0.174-0.377-0.36-0.559-0.551
		c-0.034-0.037-0.071-0.071-0.106-0.109c-0.204-0.218-0.404-0.446-0.599-0.686c-0.011-0.011-0.02-0.021-0.029-0.032
		c-0.003-0.002-0.006-0.004-0.009-0.008c-1.394-0.999-2.693-2.278-3.822-3.847c-0.012-0.018-0.024-0.037-0.037-0.054
		c-0.031-0.045-0.062-0.093-0.096-0.137c-0.558,0.299-1.132,0.571-1.736,0.792c-0.262,0.094-0.527,0.181-0.794,0.256
		c-0.082,0.025-0.165,0.043-0.249,0.064c-0.184,0.05-0.367,0.097-0.553,0.138c-0.098,0.021-0.196,0.037-0.295,0.056
		c-0.172,0.032-0.344,0.063-0.516,0.088c-0.104,0.014-0.203,0.024-0.305,0.037c-0.172,0.019-0.341,0.036-0.512,0.046
		c-0.101,0.009-0.202,0.013-0.302,0.018c-0.153,0.007-0.305,0.01-0.457,0.01c-0.021,0-0.043,0-0.064,0
		c-0.097-0.001-0.189-0.002-0.285-0.004c-0.185-0.008-0.369-0.021-0.553-0.036c-0.082-0.007-0.165-0.012-0.248-0.021
		c-0.209-0.021-0.414-0.052-0.621-0.087c-0.057-0.01-0.114-0.017-0.174-0.027c-0.815-0.152-1.616-0.4-2.395-0.749
		c-0.019-0.009-0.038-0.018-0.057-0.026c-0.032-0.016-0.063-0.032-0.097-0.048c-1.177,0.622-2.367,1.253-3.566,1.887l6.675,4.375
		c0,0,1.342,12.061-5.794,12.061c-0.718,0-1.521-0.122-2.421-0.391c0.117,0.119,0.195,0.187,0.195,0.187l-0.391-0.255
		c-2.729-0.866-6.31-3.043-11.026-7.215c0,0-0.264-0.609-0.555-1.732c-3.844,2.028-7.294,3.848-9.906,5.228
		c-0.348,0.185-0.688,0.338-1.025,0.48c-0.086,0.035-0.17,0.068-0.256,0.102c-0.32,0.125-0.637,0.238-0.947,0.326
		c-0.013,0.003-0.024,0.007-0.037,0.011c-0.324,0.091-0.64,0.155-0.952,0.209c-0.075,0.012-0.148,0.022-0.222,0.032
		c-0.297,0.043-0.59,0.072-0.876,0.08c-0.011,0.001-0.023,0.002-0.034,0.002c-0.053,0.001-0.106,0.002-0.159,0.002
		c-0.248,0-0.49-0.015-0.73-0.036c-0.057-0.006-0.114-0.012-0.17-0.02c-0.279-0.034-0.554-0.081-0.821-0.145
		c-0.005-0.001-0.011-0.002-0.017-0.003c-0.28-0.068-0.552-0.156-0.819-0.257c-0.042-0.017-0.084-0.034-0.126-0.051
		c-0.255-0.103-0.505-0.214-0.747-0.345c-0.004-0.001-0.007-0.002-0.011-0.004l-0.004-0.003c-0.001-0.001-0.003-0.001-0.004-0.002
		c-0.123-0.065-0.242-0.14-0.36-0.211l-13.051-7.645c-0.416-0.194-0.812-0.429-1.188-0.695l-0.004-0.002
		c-3.113-2.209-4.874-6.71-4.874-10.786c0-3.522,0-17.498,0-27.652c-0.306-0.415-0.553-0.859-0.727-1.333
		c-0.014-0.04-0.025-0.079-0.039-0.118c-0.062-0.187-0.111-0.377-0.15-0.572c-0.012-0.061-0.025-0.12-0.034-0.182
		c-0.037-0.24-0.061-0.484-0.057-0.737c-1.005-19.535,13.79-23.881,15.37-24.457c0.069-0.025,0.162-0.036,0.272-0.036
		c0.033,0,0.068,0.001,0.105,0.003c0.002,0,0.004,0,0.006,0c0.004,0,0.008,0,0.013,0c0.157,0.011,0.347,0.042,0.561,0.088
		c0.009,0.002,0.018,0.004,0.027,0.007c0.22,0.048,0.465,0.114,0.733,0.195c0.003,0.001,0.006,0.002,0.011,0.003
		c0.273,0.083,0.568,0.181,0.882,0.292c3.249-1.682,7.304-3.805,11.533-6.023l2.311-1.213c6.149-3.228,12.396-6.511,16.836-8.804
		c0.066-0.034,0.135-0.07,0.203-0.104c0.225-0.117,0.443-0.23,0.659-0.34c0.094-0.048,0.188-0.096,0.279-0.144
		c0.186-0.095,0.367-0.189,0.546-0.28c0.117-0.06,0.229-0.118,0.345-0.177c0.157-0.08,0.315-0.161,0.466-0.238
		c0.141-0.07,0.271-0.137,0.404-0.205c0.108-0.054,0.22-0.111,0.322-0.164c0.242-0.121,0.471-0.237,0.687-0.344
		c0.148-0.075,0.287-0.129,0.431-0.197l0.2-0.102l0.013,0.005C76.2,12.787,77.616,12.455,78.847,12.455 M108.416,76.476
		c0.088-0.51,0.165-0.996,0.234-1.469c0.021-0.147,0.041-0.29,0.061-0.432c0.048-0.337,0.089-0.663,0.128-0.979
		c0.016-0.137,0.032-0.276,0.047-0.408c0.043-0.413,0.085-0.814,0.115-1.194c0.006-0.088,0.011-0.169,0.018-0.256
		c0.021-0.296,0.04-0.583,0.055-0.86c0.008-0.147,0.013-0.291,0.019-0.433c0.008-0.206,0.014-0.404,0.019-0.601
		c0.003-0.141,0.007-0.285,0.007-0.421c0.002-0.227,0-0.439-0.003-0.651c-0.001-0.05,0-0.105-0.001-0.156l-1.128,0.941
		c0.047,0.318,0.084,0.632,0.117,0.944c0.009,0.084,0.017,0.165,0.024,0.25c0.024,0.27,0.045,0.537,0.062,0.799
		c0.002,0.038,0.005,0.078,0.008,0.116c0.017,0.293,0.027,0.579,0.034,0.86c0.002,0.08,0.003,0.157,0.004,0.236
		c0.004,0.226,0.005,0.445,0.004,0.661c0,0.054,0,0.109,0,0.164c-0.004,0.254-0.01,0.5-0.021,0.737
		c-0.002,0.061-0.004,0.119-0.008,0.18c-0.008,0.191-0.018,0.375-0.027,0.551c-0.003,0.043-0.006,0.088-0.008,0.13
		c-0.015,0.211-0.028,0.405-0.044,0.587c-0.003,0.024-0.005,0.047-0.008,0.07c-0.015,0.166-0.03,0.316-0.044,0.45
		c-0.001,0.008-0.003,0.021-0.004,0.029L108.416,76.476 M100.487,91.461c1.155,0,1.95-0.227,2.213-0.313
		c0.005-0.003,0.014-0.005,0.018-0.006c0.047-0.016,0.08-0.028,0.08-0.028l-1.69-5.812c-0.009-0.003-0.016-0.006-0.023-0.008
		c-1.268-0.355-1.65-0.588-1.65-0.588l-1.401,6.426c0.002,0,0.003,0,0.004,0.001C98.959,91.378,99.789,91.461,100.487,91.461
		 M68.934,101.169c1.4-1.301,2.47-3.572,2.707-7.387c-0.714,0.377-1.431,0.755-2.145,1.134
		C69.026,97.363,68.878,99.428,68.934,101.169 M78.847,6.455L78.847,6.455c-2.017,0-4.158,0.481-6.372,1.432
		c-0.212,0.079-0.42,0.17-0.622,0.273l-0.081,0.042C71.6,8.277,71.428,8.355,71.25,8.446L70.921,8.61l-0.336,0.168
		c-0.03,0.015-0.06,0.03-0.09,0.045l-0.241,0.123l-0.173,0.088l-0.23,0.117l-0.25,0.127l-0.255,0.13L69.21,9.479l-0.206,0.106
		l-0.38,0.195l-0.186,0.096L68.293,9.95l-0.144,0.074c-0.204,0.104-0.437,0.225-0.677,0.349l-0.137,0.07l-0.046,0.024
		c-4.091,2.112-9.8,5.109-15.321,8.008l-1.558,0.818l-2.311,1.214c-3.204,1.68-6.509,3.412-9.402,4.917
		c-0.381-0.074-0.76-0.125-1.127-0.152c-0.096-0.007-0.192-0.011-0.288-0.014c-0.09-0.003-0.179-0.004-0.264-0.004
		c-0.824,0-1.612,0.136-2.341,0.404l-0.119,0.041c-4.353,1.504-8.104,3.824-11.147,6.897c-3.988,4.026-8.608,11.333-8.035,23.305
		c0.005,0.481,0.046,0.97,0.125,1.487c0.021,0.141,0.05,0.294,0.081,0.447c0.088,0.448,0.205,0.89,0.345,1.309
		c0.012,0.037,0.034,0.104,0.057,0.172c0.012,0.034,0.023,0.067,0.036,0.101c0.107,0.293,0.228,0.583,0.362,0.87v26.055
		c0,6.334,2.905,12.488,7.401,15.68c0.038,0.026,0.075,0.053,0.113,0.078c0.555,0.386,1.133,0.729,1.722,1.021l12.813,7.506
		l0.03,0.019c0.165,0.1,0.332,0.198,0.502,0.291c0.069,0.038,0.14,0.075,0.21,0.11c0.003,0.002,0.006,0.003,0.009,0.005
		c0.372,0.193,0.768,0.374,1.206,0.55l0.156,0.063c0.029,0.012,0.059,0.022,0.087,0.033c0.517,0.195,1.011,0.35,1.513,0.472
		c0.059,0.015,0.119,0.028,0.178,0.041c0.421,0.096,0.864,0.173,1.319,0.229c0.107,0.014,0.215,0.026,0.323,0.037
		c0.024,0.002,0.047,0.005,0.071,0.007c0.451,0.041,0.867,0.061,1.271,0.061c0.104,0,0.208-0.001,0.313-0.004h0
		c0.041-0.001,0.082-0.003,0.123-0.005c0.468-0.016,0.946-0.059,1.459-0.132c0.106-0.015,0.212-0.03,0.32-0.047
		c0.032-0.005,0.063-0.011,0.095-0.016c0.573-0.1,1.067-0.209,1.553-0.345c0.022-0.007,0.043-0.013,0.065-0.019
		c0.462-0.132,0.933-0.293,1.48-0.506c0.106-0.042,0.219-0.086,0.334-0.133c0.026-0.011,0.053-0.022,0.079-0.033
		c0.356-0.15,0.898-0.388,1.497-0.705c1.529-0.808,3.353-1.771,5.376-2.838c3.982,3.325,7.494,5.528,10.67,6.696
		c0.978,0.571,2.074,0.851,3.159,0.851c0.002,0,0.004,0,0.005,0c0.71,0.112,1.405,0.169,2.082,0.169
		c3.225,0,6.039-1.239,8.137-3.584c3.62-4.045,3.876-10.337,3.742-13.487c0.278,0.238,0.562,0.469,0.852,0.692
		c0.125,0.142,0.252,0.28,0.38,0.418c0.035,0.038,0.096,0.101,0.159,0.164c0.271,0.283,0.545,0.553,0.816,0.803
		c0.048,0.046,0.13,0.119,0.212,0.19c0.262,0.236,0.552,0.482,0.837,0.706l0.222,0.173c0.277,0.213,0.564,0.419,0.856,0.616l0,0
		l0.138,0.094c0.034,0.023,0.099,0.065,0.133,0.088c0.3,0.193,0.604,0.377,0.912,0.551l0.2,0.112c0.349,0.19,0.705,0.369,1.056,0.53
		c0.01,0.004,0.018,0.008,0.022,0.011c0.04,0.019,0.054,0.024,0.094,0.043c1.197,0.537,2.453,0.931,3.733,1.169
		c0.103,0.02,0.207,0.037,0.312,0.053c0.309,0.052,0.617,0.096,0.929,0.131c0.142,0.016,0.241,0.024,0.342,0.032
		c0.016,0.001,0.055,0.005,0.07,0.006c0.269,0.022,0.537,0.04,0.808,0.052c0.043,0.001,0.086,0.003,0.129,0.004l0.339,0.005h0.136
		c0.229,0,0.461-0.004,0.692-0.014c0.018,0,0.035-0.001,0.053-0.002c0.146-0.007,0.289-0.015,0.433-0.025
		c0.257-0.017,0.515-0.042,0.773-0.071c0.021-0.002,0.042-0.005,0.063-0.008l0.087-0.01l0.267-0.034
		c0.291-0.04,0.564-0.087,0.833-0.138l0.058-0.011c0.129-0.023,0.258-0.049,0.385-0.076c0.29-0.062,0.578-0.134,0.865-0.211
		c0.106-0.026,0.224-0.058,0.342-0.092c0.386-0.11,0.777-0.237,1.166-0.377c7.34-2.671,16.069-10.587,16.069-33.166
		c0-0.88-0.03-1.798-0.093-2.809c-0.018-0.271-0.036-0.501-0.055-0.733l-0.006-0.066c-0.049-0.636-0.118-1.314-0.204-1.992
		l-0.022-0.18c-0.021-0.182-0.044-0.364-0.07-0.541c-0.127-0.878-0.272-1.708-0.434-2.475c-0.009-0.044-0.019-0.087-0.028-0.13
		c-0.021-0.093-0.044-0.184-0.067-0.273l0.007,0.032c-0.003-0.012-0.005-0.023-0.008-0.035c-0.152-0.686-0.322-1.353-0.503-1.985
		c-0.057-0.202-0.128-0.438-0.199-0.672l-0.02-0.062c-0.174-0.555-0.348-1.068-0.532-1.571l-0.062-0.173
		c-0.064-0.179-0.129-0.358-0.196-0.529c-0.276-0.701-0.547-1.326-0.827-1.915c-0.101-0.21-0.201-0.402-0.302-0.592l-0.066-0.126
		c-0.202-0.393-0.406-0.775-0.617-1.141c-0.166-0.288-0.33-0.561-0.498-0.829c-0.01-0.015-0.019-0.03-0.028-0.045
		c-0.19-0.298-0.384-0.584-0.579-0.866c-0.244-0.354-0.485-0.687-0.725-0.996c-0.275-0.352-0.58-0.734-0.926-1.119
		c-0.279-0.314-0.545-0.578-0.759-0.791l-0.04-0.039c-0.002-0.002-0.036-0.036-0.038-0.038c-0.156-0.156-0.314-0.31-0.475-0.458
		c-0.272-0.255-0.581-0.522-0.891-0.773c-0.013-0.011-0.026-0.022-0.04-0.033c-0.117-0.093-0.234-0.181-0.352-0.268l-0.05-0.037
		c-0.515-0.39-1.026-0.735-1.543-1.039c-0.643-0.565-1.322-1.087-2.027-1.559c-0.131-0.094-0.259-0.181-0.386-0.261
		c-0.412-0.258-0.768-0.447-1.026-0.585l-0.06-0.032l-0.081-0.043c-0.212-0.114-0.425-0.226-0.636-0.325
		c-0.333-0.155-0.625-0.274-0.88-0.373v-10.41v-1.034c0-0.486-0.014-0.98-0.045-1.554c-0.001-0.021-0.002-0.041-0.003-0.061
		l-0.009-0.141l-0.011-0.182c-0.036-0.529-0.077-0.979-0.13-1.409c-0.007-0.07-0.018-0.164-0.03-0.258
		c-0.054-0.414-0.127-0.86-0.218-1.337c-0.043-0.215-0.078-0.378-0.114-0.541c-0.069-0.326-0.154-0.669-0.246-1.009
		c-0.069-0.258-0.15-0.527-0.237-0.795c-0.081-0.255-0.191-0.588-0.334-0.954c-0.09-0.232-0.187-0.462-0.285-0.687
		c-0.097-0.221-0.205-0.444-0.315-0.665c-0.219-0.44-0.471-0.887-0.739-1.308c-0.105-0.17-0.195-0.31-0.288-0.444
		c-0.23-0.331-0.439-0.594-0.614-0.81c-0.102-0.124-0.194-0.231-0.289-0.337c-0.5-0.569-1.047-1.083-1.628-1.535
		c-0.043-0.034-0.087-0.068-0.132-0.102l0,0c-0.313-0.237-0.652-0.462-1.035-0.689c-0.049-0.029-0.099-0.058-0.148-0.085
		c-0.069-0.039-0.136-0.075-0.203-0.111c-0.437-0.238-0.888-0.446-1.35-0.623L85.358,8.426c-0.374-0.254-0.769-0.488-1.179-0.7
		c-0.251-0.143-0.51-0.267-0.772-0.371C81.992,6.758,80.459,6.455,78.847,6.455L78.847,6.455z"/>
</g>
<path fill="#FFFFFF" stroke="#000000" stroke-width="5" d="M115.489,68.376c-0.016-0.231-0.034-0.456-0.053-0.686
	c-0.045-0.586-0.104-1.158-0.176-1.72c-0.026-0.207-0.05-0.419-0.079-0.623c-0.104-0.72-0.226-1.422-0.367-2.098
	c-0.026-0.113-0.058-0.221-0.081-0.332c-0.125-0.562-0.263-1.107-0.414-1.635c-0.061-0.216-0.126-0.428-0.19-0.64
	c-0.135-0.43-0.277-0.849-0.427-1.256c-0.07-0.189-0.136-0.385-0.208-0.569c-0.21-0.532-0.429-1.044-0.661-1.532
	c-0.093-0.194-0.194-0.374-0.29-0.56c-0.156-0.304-0.314-0.602-0.479-0.887c-0.126-0.218-0.254-0.43-0.384-0.638
	c-0.147-0.231-0.297-0.452-0.448-0.67c-0.179-0.259-0.36-0.512-0.545-0.75c-0.213-0.272-0.425-0.537-0.646-0.783
	c-0.185-0.207-0.374-0.394-0.563-0.582c-0.114-0.113-0.228-0.227-0.344-0.333c-0.198-0.185-0.401-0.361-0.604-0.526
	c-0.091-0.072-0.182-0.137-0.272-0.206c-0.48-0.364-0.966-0.677-1.456-0.921c-0.62-0.596-1.259-1.098-1.903-1.523
	c-0.064-0.042-0.126-0.093-0.189-0.133c-0.237-0.148-0.472-0.271-0.708-0.397c-0.149-0.08-0.3-0.164-0.449-0.234
	c-0.208-0.097-0.413-0.177-0.62-0.257c-0.183-0.07-0.362-0.134-0.543-0.188c-0.185-0.056-0.368-0.106-0.552-0.146
	c-0.204-0.046-0.403-0.078-0.605-0.104c-0.158-0.021-0.318-0.044-0.476-0.052c-0.232-0.012-0.457-0.002-0.683,0.013
	c-0.121,0.009-0.246,0.006-0.367,0.022c-0.164,0.023-0.319,0.067-0.479,0.104c0-6.5,0-13.116,0-15.604c0-0.659,0-1.034,0-1.034
	c0-0.42-0.015-0.831-0.036-1.238c-0.007-0.108-0.013-0.216-0.02-0.326c-0.024-0.36-0.056-0.715-0.098-1.062
	c-0.007-0.058-0.012-0.115-0.02-0.173c-0.046-0.349-0.103-0.687-0.166-1.019c-0.026-0.132-0.055-0.261-0.083-0.39
	c-0.052-0.243-0.111-0.479-0.175-0.713c-0.048-0.179-0.101-0.353-0.157-0.525c-0.066-0.209-0.136-0.417-0.214-0.618
	c-0.061-0.156-0.125-0.308-0.19-0.457c-0.057-0.13-0.119-0.255-0.182-0.38c-0.139-0.279-0.288-0.544-0.448-0.793
	c-0.05-0.079-0.098-0.16-0.149-0.234c-0.107-0.154-0.223-0.3-0.339-0.443c-0.046-0.056-0.096-0.11-0.144-0.164
	c-0.254-0.289-0.53-0.549-0.828-0.776c-0.01-0.008-0.019-0.017-0.029-0.023c-0.156-0.118-0.321-0.223-0.488-0.322
	c-0.044-0.024-0.087-0.048-0.132-0.072c-0.345-0.19-0.711-0.343-1.104-0.453c-0.001,0-0.004,0-0.005-0.001
	c0.001,0.001,0.004,0.001,0.005,0.001c-0.007-0.001-0.012-0.005-0.018-0.006l0.01-0.016l-12.113-7.223
	c-0.252-0.182-0.517-0.337-0.796-0.474l-0.102-0.06l-0.003,0.002c-1.667-0.758-3.855-0.668-6.612,0.571l-0.013-0.005l-0.2,0.102
	c-0.144,0.068-0.282,0.123-0.431,0.197c-0.216,0.107-0.444,0.224-0.687,0.344c-0.103,0.053-0.214,0.11-0.322,0.164
	c-0.134,0.068-0.264,0.135-0.404,0.205c-0.15,0.077-0.309,0.158-0.466,0.238c-0.115,0.059-0.228,0.117-0.345,0.177
	c-0.179,0.091-0.36,0.185-0.546,0.28c-0.092,0.047-0.186,0.095-0.279,0.144c-0.216,0.11-0.435,0.223-0.659,0.34
	c-0.068,0.034-0.137,0.07-0.203,0.104c-4.441,2.293-10.688,5.576-16.836,8.804l-2.311,1.213c-4.229,2.218-8.284,4.341-11.533,6.023
	c-0.313-0.111-0.609-0.209-0.882-0.292c-0.004-0.001-0.007-0.002-0.011-0.003c-0.268-0.081-0.514-0.147-0.733-0.195
	c-0.01-0.003-0.018-0.005-0.027-0.007c-0.213-0.046-0.403-0.077-0.561-0.088c-0.007,0-0.013,0.001-0.019,0
	c-0.157-0.008-0.287,0-0.377,0.033c-1.58,0.575-16.375,4.922-15.37,24.457c-0.003,0.253,0.021,0.497,0.057,0.737
	c0.009,0.062,0.022,0.122,0.034,0.182c0.039,0.195,0.087,0.386,0.15,0.572c0.013,0.039,0.025,0.079,0.039,0.118
	c0.173,0.474,0.421,0.918,0.727,1.333c0,10.154,0,24.13,0,27.652c0,4.076,1.761,8.577,4.874,10.786l0.004,0.002
	c0.376,0.267,0.771,0.501,1.188,0.695l13.051,7.645c0.119,0.071,0.237,0.146,0.36,0.211c0.001,0.001,0.003,0.001,0.004,0.002
	l0.004,0.003c0.004,0.002,0.007,0.003,0.011,0.004c0.242,0.131,0.492,0.242,0.747,0.345c0.042,0.017,0.084,0.034,0.126,0.051
	c0.267,0.101,0.539,0.188,0.819,0.257c0.006,0.001,0.012,0.002,0.017,0.003c0.267,0.063,0.542,0.11,0.821,0.145
	c0.056,0.008,0.113,0.014,0.17,0.02c0.292,0.026,0.586,0.042,0.889,0.034c0.011,0,0.023-0.001,0.034-0.002
	c0.286-0.008,0.579-0.037,0.876-0.08c0.074-0.01,0.146-0.021,0.222-0.032c0.312-0.054,0.628-0.118,0.952-0.209
	c0.013-0.004,0.024-0.008,0.037-0.011c0.311-0.088,0.627-0.201,0.947-0.326c0.085-0.033,0.169-0.066,0.256-0.102
	c0.337-0.143,0.677-0.296,1.025-0.48c2.611-1.38,6.062-3.199,9.906-5.228c0.291,1.123,0.555,1.732,0.555,1.732
	c4.717,4.172,8.298,6.349,11.026,7.215l0.391,0.255c0,0-0.078-0.067-0.195-0.187c9.839,2.939,8.215-11.67,8.215-11.67l-6.675-4.375
	c1.199-0.634,2.39-1.265,3.566-1.887c0.033,0.016,0.064,0.032,0.097,0.048c0.019,0.009,0.038,0.018,0.057,0.026
	c0.778,0.349,1.579,0.597,2.395,0.749c0.06,0.011,0.117,0.018,0.174,0.027c0.207,0.035,0.412,0.065,0.621,0.087
	c0.083,0.01,0.166,0.015,0.248,0.021c0.184,0.016,0.368,0.028,0.553,0.036c0.096,0.002,0.188,0.003,0.285,0.004
	c0.174,0.001,0.347-0.002,0.521-0.01c0.1-0.005,0.201-0.009,0.302-0.018c0.171-0.01,0.34-0.027,0.512-0.046
	c0.102-0.013,0.201-0.023,0.305-0.037c0.172-0.024,0.344-0.056,0.516-0.088c0.099-0.019,0.197-0.035,0.295-0.056
	c0.186-0.041,0.369-0.088,0.553-0.138c0.084-0.021,0.167-0.039,0.249-0.064c0.267-0.075,0.532-0.162,0.794-0.256
	c0.604-0.221,1.179-0.493,1.736-0.792c0.033,0.044,0.064,0.092,0.096,0.137c0.013,0.017,0.025,0.036,0.037,0.054
	c1.129,1.568,2.429,2.848,3.822,3.847c0.003,0.004,0.006,0.006,0.009,0.008c0.01,0.011,0.019,0.021,0.029,0.032
	c0.194,0.239,0.395,0.468,0.599,0.686c0.035,0.038,0.072,0.072,0.106,0.109c0.182,0.19,0.37,0.377,0.559,0.551
	c0.046,0.043,0.094,0.083,0.14,0.124c0.182,0.164,0.367,0.322,0.557,0.472c0.05,0.039,0.103,0.08,0.152,0.118
	c0.189,0.146,0.38,0.282,0.573,0.413c0.051,0.035,0.101,0.068,0.151,0.103c0.202,0.13,0.406,0.254,0.614,0.371
	c0.042,0.023,0.085,0.049,0.128,0.072c0.23,0.126,0.463,0.243,0.698,0.351c0.019,0.009,0.038,0.018,0.059,0.027
	c0.776,0.349,1.577,0.598,2.394,0.748c0.057,0.012,0.116,0.018,0.174,0.028c0.206,0.034,0.412,0.064,0.62,0.088
	c0.083,0.009,0.165,0.014,0.249,0.021c0.184,0.016,0.367,0.027,0.552,0.035c0.095,0.002,0.19,0.003,0.285,0.004
	c0.173,0.001,0.348-0.002,0.521-0.009c0.102-0.005,0.202-0.01,0.302-0.018c0.17-0.011,0.341-0.027,0.512-0.047
	c0.102-0.013,0.203-0.024,0.306-0.038c0.171-0.023,0.344-0.055,0.515-0.087c0.098-0.019,0.197-0.035,0.295-0.057
	c0.186-0.039,0.369-0.086,0.553-0.136c0.084-0.022,0.167-0.041,0.249-0.065c0.268-0.076,0.532-0.162,0.795-0.257
	c7.925-2.884,12.104-12.618,12.104-27.521C115.57,69.978,115.538,69.169,115.489,68.376z M108.076,76.324
	c0.001-0.009,0.003-0.021,0.004-0.029c0.014-0.134,0.029-0.284,0.044-0.45c0.003-0.023,0.005-0.046,0.008-0.07
	c0.016-0.182,0.029-0.376,0.044-0.587c0.002-0.042,0.005-0.087,0.008-0.13c0.01-0.176,0.02-0.359,0.027-0.551
	c0.004-0.061,0.006-0.119,0.008-0.18c0.011-0.237,0.017-0.483,0.021-0.737c0-0.055,0-0.11,0-0.164c0.001-0.216,0-0.436-0.004-0.661
	c-0.001-0.079-0.002-0.156-0.004-0.236c-0.007-0.281-0.018-0.567-0.034-0.86c-0.003-0.038-0.006-0.078-0.008-0.116
	c-0.018-0.262-0.038-0.529-0.062-0.799c-0.008-0.085-0.016-0.166-0.024-0.25c-0.033-0.312-0.07-0.626-0.117-0.944l1.128-0.941
	c0.001,0.051,0,0.106,0.001,0.156c0.003,0.212,0.005,0.425,0.003,0.651c0,0.136-0.004,0.28-0.007,0.421
	c-0.005,0.196-0.011,0.395-0.019,0.601c-0.006,0.142-0.011,0.285-0.019,0.433c-0.015,0.277-0.033,0.564-0.055,0.86
	c-0.007,0.087-0.012,0.168-0.018,0.256c-0.03,0.38-0.072,0.781-0.115,1.194c-0.015,0.132-0.031,0.271-0.047,0.408
	c-0.039,0.315-0.08,0.642-0.128,0.979c-0.02,0.142-0.039,0.284-0.061,0.432c-0.069,0.473-0.146,0.959-0.234,1.469L108.076,76.324z
	 M102.717,91.142c-0.004,0.001-0.013,0.003-0.018,0.006c-0.421,0.14-2.213,0.639-4.664-0.016c-0.001-0.001-0.002-0.001-0.004-0.001
	l1.401-6.426c0,0,0.383,0.232,1.65,0.588c0.008,0.002,0.015,0.005,0.023,0.008l1.69,5.812
	C102.797,91.114,102.764,91.126,102.717,91.142z M68.934,101.169c-0.055-1.741,0.092-3.807,0.562-6.253
	c0.714-0.379,1.431-0.757,2.145-1.134C71.404,97.597,70.333,99.869,68.934,101.169z"/>
<path fill="#FFFFFF" stroke="#000000" stroke-width="2" stroke-linecap="round" stroke-linejoin="round" d="M94.207,20.709
	l0.01-0.016l-12.113-7.223c-0.252-0.182-0.517-0.337-0.796-0.474l-0.102-0.06l-0.003,0.002c-1.796-0.816-4.189-0.667-7.256,0.866
	c-6.369,3.185-24.438,12.786-34.591,18.037c-1.26-0.446-2.235-0.688-2.61-0.552c-1.58,0.575-16.375,4.922-15.37,24.457
	c-0.016,1.11,0.377,2.089,1.006,2.942c0,10.154,0,24.13,0,27.652c0,4.076,1.761,8.577,4.874,10.786l0.004,0.002
	c0.376,0.267,0.771,0.501,1.188,0.695l13.051,7.645c0.12,0.072,0.24,0.146,0.365,0.213l0.004,0.003l0,0
	c2.143,1.151,4.827,1.265,7.949-0.385c8.405-4.44,25.479-13.428,36.539-19.316c11.059-5.89,12.871-11.277,12.871-25.498
	c0-7.612,0-29.588,0-29.588C99.226,25.785,97.664,21.662,94.207,20.709z"/>
<path d="M94.216,20.694l-12.113-7.223c-0.252-0.182-0.517-0.337-0.796-0.474l-0.102-0.06l-0.003,0.002
	c-1.796-0.816-4.189-0.667-7.256,0.866c-7.345,3.673-30.264,15.885-38.638,20.109c-8.833,4.455-12.927,10.485-12.927,20.253
	c0,9.936,0,28.088,0,32.174c0,4.076,1.761,8.577,4.874,10.786l0,0l0.004,0.002c0.376,0.267,0.771,0.501,1.188,0.695l13.42,7.86
	L53.43,86.914c6.663-4.089,13.642-8.347,19.137-11.271c11.059-5.89,12.871-8.98,12.871-23.199c0-3.776,0-11.086,0-17.495
	L94.216,20.694z"/>
<path fill="#5F6047" d="M99.226,30.897c0-7.615-3.447-13.071-11.491-9.049c-7.346,3.673-30.262,15.886-38.637,20.11
	c-8.833,4.455-12.927,10.485-12.927,20.252c0,9.936,0,28.088,0,32.173c0,7.039,5.239,15.357,13.646,10.917
	c8.405-4.44,25.479-13.428,36.539-19.316c11.059-5.89,12.871-11.277,12.871-25.498C99.226,52.874,99.226,30.897,99.226,30.897z"/>
<path fill="#C1C1A4" d="M99.226,30.897c0-7.615-3.447-13.071-11.491-9.049c-7.346,3.673-30.262,15.886-38.637,20.11
	c-8.833,4.455-12.927,10.485-12.927,20.252c0,0.419,0,0.858,0,1.307l63.055-31.586C99.226,31.272,99.226,30.897,99.226,30.897z"/>
<path fill="#E2E1C3" d="M36.171,62.21c0-9.768,4.094-15.798,12.927-20.252c8.375-4.224,31.291-16.437,38.637-20.11
	c2.653-1.326,4.796-1.605,6.489-1.133c-0.007-0.001-0.012-0.005-0.018-0.006l0.01-0.016l-12.113-7.223
	c-0.252-0.182-0.517-0.337-0.796-0.474l-0.102-0.06l-0.003,0.002c-1.796-0.816-4.189-0.667-7.256,0.866
	c-6.369,3.185-24.438,12.786-34.591,18.037c-1.26-0.446-2.235-0.688-2.61-0.552c-1.58,0.575-16.375,4.922-15.37,24.457
	c0,0.002,0,0.005,0,0.007l14.794,7.764C36.171,63.069,36.171,62.629,36.171,62.21z"/>
<polygon opacity="0.5" fill="#666665" points="48.523,27.06 62.922,34.783 59.65,51.756 69.8,46.67 72.849,29.572 57.776,22.203 "/>
<polygon opacity="0.5" fill="#666665" points="78.505,42.312 87.316,37.898 89.713,21.019 74.578,13.506 65.894,17.953 
	80.842,25.583 "/>
<path opacity="0.33" fill="#A6F3F7" d="M96.423,33.798c0-6.938-3.141-11.908-10.469-8.244C79.261,28.9,58.382,40.026,50.751,43.875
	c-8.047,4.059-11.777,9.552-11.777,18.451c0,9.053,0,25.59,0,29.313c0,6.411,4.774,13.99,12.432,9.945
	c7.658-4.046,23.214-12.234,33.291-17.6c10.075-5.365,11.727-10.275,11.727-23.23C96.423,53.821,96.423,33.798,96.423,33.798z"/>
<path fill="#5F6047" stroke="#070707" d="M50.391,36.787c0,0-12.065-6.071-13.645-5.497c-1.58,0.575-16.375,4.922-15.37,24.457
	c-0.048,3.321,3.52,5.502,6.321,6.464c2.877,0.988,8.617,3.591,12.783,2.011c4.165-1.58,5.602-2.299,7.182-2.873
	c3.16-1.149,3.081-3.317,3.447-5.171c0.825-4.173,1.729-8.191,2.729-12.065C54.587,41.208,53.467,38.387,50.391,36.787z"/>
<path opacity="0.39" fill="#E2E1C3" d="M40.48,64.221c4.165-1.58,5.602-2.299,7.182-2.873c3.16-1.149,3.081-3.317,3.447-5.171
	c0.825-4.173,1.729-8.191,2.729-12.065c0.322-1.246,0.277-2.47-0.096-3.597C50.683,40.07,43.6,43.884,39.23,48.836
	c-3.717,4.214-3.971,11.75-3.668,15.729C37.268,64.812,38.976,64.792,40.48,64.221z"/>
<path opacity="0.63" fill="#666660" d="M42.538,54.358c0-3.166,1.245-6.133,3.447-6.703c2.203-0.57,2.527,1.895,2.538,4.1
	c0.02,3.543-0.757,5.975-2.826,6.358C43.63,58.498,42.538,57.231,42.538,54.358z"/>
<path fill="#BFBEA6" d="M43.687,55.507c0-3.166,1.245-6.133,3.447-6.703c2.202-0.57,2.527,1.895,2.539,4.101
	c0.019,3.543-0.757,5.974-2.826,6.358C44.779,59.647,43.687,58.38,43.687,55.507z"/>
<path fill="none" stroke="#4F4E38" d="M50.391,36.787c0,0-12.065-6.071-13.645-5.497c-1.58,0.575-16.375,4.922-15.37,24.457
	c-0.048,3.321,3.52,5.502,6.321,6.464c2.877,0.988,8.617,3.591,12.783,2.011c4.165-1.58,5.602-2.299,7.182-2.873
	c3.16-1.149,3.081-3.317,3.447-5.171c0.825-4.173,1.729-8.191,2.729-12.065C54.587,41.208,53.467,38.387,50.391,36.787z"/>
<g>
	<g>
		<g>
			<path fill="#394244" d="M80.51,91.026c-8.253,0-16.607-7.479-16.607-21.773c0-23.142,12.233-27.516,16.253-28.953
				c0.594-0.212,1.233-0.32,1.902-0.32c5.503,0,13.465,7.756,13.465,21.779c0,16.776-3.477,25.854-10.939,28.568
				C83.308,90.791,81.937,91.026,80.51,91.026C80.511,91.026,80.511,91.026,80.51,91.026z M76.616,82.32
				c2.219,1.443,4.191,1.753,5.477,1.753c0.745,0,1.332-0.102,1.7-0.19l-1.937-6.664c-2.104-0.417-3.283-0.777-3.908-1.011
				L76.616,82.32z M89.645,68.863c1.014-6.219,0.476-9.587,0.138-10.895l-3.109,2.595c0.423,3.123,0.142,5.973,0.013,6.982
				L89.645,68.863z M74.709,63.836c0.341-4.248,1.991-6.146,2.81-6.837l-4.011-5.553c-2.656,4.412-3.282,9.362-3.409,10.73
				L74.709,63.836z"/>
		</g>
		<g>
			<path fill="#2A3535" d="M82.059,40.479c5.488,0,12.965,7.861,12.965,21.279c0,14.904-2.684,25.216-10.61,28.099
				c-1.223,0.444-2.543,0.669-3.903,0.669c-7.461,0-16.107-6.771-16.107-21.273c0-21.325,10.282-26.466,15.921-28.482
				C80.87,40.575,81.452,40.479,82.059,40.479 M75.167,64.533c0.264-5.914,3.048-7.423,3.048-7.423l-4.736-6.557
				c-3.583,5.47-3.908,11.965-3.908,11.965L75.167,64.533 M90.031,69.582c1.585-9.08,0-12.472,0-12.472l-3.892,3.248
				c0.577,3.893,0,7.492,0,7.492L90.031,69.582 M82.092,84.573c1.437,0,2.319-0.353,2.319-0.353l-2.16-7.435
				c-3.746-0.721-4.663-1.279-4.663-1.279l-1.533,7.04C78.427,84.177,80.57,84.573,82.092,84.573 M82.059,39.479
				c-0.727,0-1.423,0.118-2.071,0.35c-4.102,1.467-16.584,5.93-16.584,29.424c0,14.623,8.606,22.273,17.107,22.273
				c1.485,0,2.913-0.245,4.245-0.729C92.443,88,96.024,78.774,96.024,61.758C96.024,47.413,87.766,39.479,82.059,39.479
				L82.059,39.479z M70.636,61.839c0.184-1.62,0.827-5.673,2.919-9.473l3.303,4.572c-0.887,0.895-2.176,2.753-2.582,6.21
				L70.636,61.839L70.636,61.839z M87.205,60.771l2.264-1.889c0.272,1.544,0.501,4.496-0.216,9.258l-2.026-0.901
				C87.36,66.022,87.542,63.518,87.205,60.771L87.205,60.771z M77.179,82.084l1.138-5.222c0.674,0.216,1.678,0.486,3.144,0.786
				l1.699,5.847c-0.294,0.044-0.654,0.077-1.067,0.077C80.931,83.573,79.175,83.304,77.179,82.084L77.179,82.084z"/>
		</g>
	</g>
	<path fill="#798988" d="M83.783,43.074c-5.642,2.018-15.921,7.16-15.921,28.485c0,17.144,9.295,22.765,17.218,19.885
		c7.925-2.886,12.104-12.618,12.104-27.522C97.184,49.018,89.261,41.115,83.783,43.074z M73.028,64.825
		c0,0,0.323-6.499,3.911-11.968l4.734,6.558c0,0-2.783,1.511-3.048,7.422L73.028,64.825z M79.512,84.852l1.535-7.039
		c0,0,0.915,0.556,4.661,1.274l2.16,7.438C87.869,86.526,84.125,88.024,79.512,84.852z M89.598,70.156c0,0,0.576-3.602,0-7.491
		l3.891-3.25c0,0,1.585,3.394,0,12.471L89.598,70.156z"/>
	<g opacity="0.23">
		<path fill="#D0EDF4" d="M85.503,43.779c4.478,0,10.681,7,10.681,20.143c0,14.454-4.065,23.895-11.446,26.583
			c-1.2,0.436-2.423,0.657-3.634,0.657c-5.647,0-12.242-5.134-12.242-19.603c0-22.087,11.484-26.194,15.258-27.544
			C84.558,43.858,85.024,43.779,85.503,43.779 M78.625,67.836c0.195,0,0.39-0.058,0.557-0.169c0.264-0.178,0.428-0.469,0.442-0.786
			c0.231-5.172,2.519-6.583,2.526-6.588c0.252-0.137,0.434-0.376,0.497-0.657c0.064-0.28,0.005-0.574-0.164-0.808l-4.734-6.558
			c-0.188-0.261-0.49-0.415-0.811-0.415c-0.008,0-0.015,0-0.022,0c-0.329,0.007-0.633,0.176-0.813,0.451
			c-3.694,5.632-4.061,12.19-4.074,12.466c-0.021,0.44,0.246,0.842,0.661,0.991l5.598,2.012
			C78.397,67.817,78.511,67.836,78.625,67.836 M93.489,72.885c0.162,0,0.324-0.039,0.471-0.117c0.271-0.146,0.461-0.407,0.515-0.711
			c1.62-9.28-0.009-12.916-0.079-13.066c-0.132-0.281-0.386-0.485-0.689-0.553c-0.071-0.016-0.145-0.024-0.217-0.024
			c-0.232,0-0.46,0.081-0.641,0.232l-3.891,3.25c-0.268,0.223-0.399,0.57-0.349,0.914c0.545,3.681,0.007,7.152,0.002,7.188
			c-0.071,0.447,0.167,0.887,0.581,1.071l3.891,1.729C93.212,72.857,93.35,72.885,93.489,72.885 M85.548,87.879
			c1.584,0,2.583-0.382,2.691-0.425c0.478-0.191,0.732-0.714,0.589-1.208l-2.16-7.438c-0.104-0.36-0.402-0.632-0.771-0.703
			c-3.361-0.645-4.328-1.146-4.331-1.146c0,0,0,0,0.001,0c-0.159-0.097-0.339-0.146-0.52-0.146c-0.134,0-0.268,0.026-0.395,0.081
			c-0.297,0.127-0.514,0.391-0.582,0.706l-1.535,7.039c-0.087,0.396,0.075,0.807,0.41,1.037
			C81.593,87.498,83.998,87.879,85.548,87.879 M85.503,42.779c-0.592,0-1.168,0.097-1.721,0.295
			c-5.642,2.018-15.921,7.16-15.921,28.485c0,14.321,6.487,20.603,13.242,20.603c1.331,0,2.672-0.244,3.976-0.718
			c7.925-2.886,12.104-12.618,12.104-27.522C97.184,50.521,90.778,42.779,85.503,42.779L85.503,42.779z M78.625,66.836l-5.598-2.012
			c0,0,0.323-6.499,3.911-11.968l4.734,6.558C81.673,59.415,78.89,60.925,78.625,66.836L78.625,66.836z M93.489,71.885l-3.891-1.729
			c0,0,0.576-3.602,0-7.491l3.891-3.25C93.489,59.415,95.074,62.808,93.489,71.885L93.489,71.885z M85.548,86.879
			c-1.522,0-3.664-0.396-6.036-2.027l1.535-7.039c0,0,0.915,0.556,4.661,1.274l2.16,7.438
			C87.869,86.526,86.985,86.879,85.548,86.879L85.548,86.879z"/>
	</g>
	<path opacity="0.5" fill="#404949" d="M84.603,63.565c-1.189,0.426-3.36,1.512-3.36,6.018c0,3.616,1.962,4.804,3.637,4.195
		c1.671-0.609,2.552-2.665,2.552-5.81C87.431,64.821,85.762,63.153,84.603,63.565z"/>
	<g>
		<path fill="#233030" d="M82.049,40.48c2.01,0,4.286,1.06,6.368,3.056c4.459,2.229,8.767,9.396,8.767,20.385
			c0,14.904-4.18,24.637-12.104,27.522c-1.304,0.474-2.644,0.718-3.974,0.718c-3.179,0-6.298-1.394-8.711-4.359
			c-4.479-3.21-7.992-9.307-7.992-18.55c0-21.325,10.282-26.466,15.921-28.482C80.868,40.576,81.446,40.48,82.049,40.48
			 M75.167,64.533c0.264-5.914,3.048-7.423,3.048-7.423l-2.087-2.89c-2.083,3.788-2.783,7.757-3.002,9.578L75.167,64.533
			 M90.031,69.582c0.586-3.362,0.739-5.94,0.696-7.86l-1.129,0.943c0.422,2.842,0.229,5.523,0.094,6.766L90.031,69.582
			 M82.101,84.567c1.43,0,2.311-0.347,2.311-0.347l-1.69-5.814c-1.285-0.36-1.674-0.593-1.674-0.593l-1.4,6.424
			C80.571,84.484,81.402,84.567,82.101,84.567 M82.049,39.48c-0.723,0-1.416,0.117-2.062,0.348
			c-4.102,1.466-16.584,5.93-16.584,29.424c0,11.471,5.149,16.985,8.301,19.284c2.472,2.983,5.806,4.625,9.401,4.625
			c1.444,0,2.896-0.262,4.315-0.778c8.35-3.04,12.763-12.882,12.763-28.462c0-12.137-4.915-18.984-9.183-21.209
			C86.787,40.627,84.323,39.48,82.049,39.48L82.049,39.48z M74.228,63.131c0.243-1.578,0.807-4.251,2.055-6.989l0.575,0.796
			c-0.886,0.895-2.176,2.753-2.582,6.21L74.228,63.131L74.228,63.131z M80.838,83.468l0.938-4.302
			c0.044,0.015,0.091,0.029,0.138,0.044l1.245,4.281c-0.292,0.043-0.648,0.075-1.058,0.075
			C81.684,83.567,81.262,83.534,80.838,83.468L80.838,83.468z"/>
	</g>
</g>
<path fill="#2B1F14" d="M71.694,92.161l8.02,5.258c0,0,2.658,23.923-19.437,4.387C60.277,101.805,71.692,107.222,71.694,92.161z"/>
<g>
	<path fill="#190F07" d="M71.694,92.161l8.02,5.258c0,0,1.339,12.062-5.793,12.062c-2.912,0-7.236-2.01-13.644-7.675
		c0,0,1.999,0.948,4.322,0.948C67.831,102.753,71.693,100.921,71.694,92.161 M71.694,91.161c-0.163,0-0.326,0.04-0.476,0.12
		c-0.323,0.175-0.524,0.513-0.524,0.88c-0.001,6.365-2.051,9.593-6.095,9.593c-2.057,0-3.877-0.844-3.896-0.853
		c-0.137-0.064-0.282-0.095-0.425-0.095c-0.328,0-0.646,0.161-0.836,0.45c-0.273,0.416-0.201,0.969,0.172,1.298
		c6.032,5.333,10.711,7.926,14.306,7.926c1.787,0,3.27-0.645,4.408-1.916c3.191-3.565,2.413-10.943,2.379-11.256
		c-0.033-0.296-0.196-0.562-0.446-0.726l-8.02-5.258C72.077,91.215,71.885,91.161,71.694,91.161L71.694,91.161z"/>
</g>
<path opacity="0.48" fill="#A6F3F7" d="M72.849,94.862l5.741,3.734c0,0,0.289,1.869-0.718,4.979l-6.224-4.117
	C71.649,99.458,72.757,98.022,72.849,94.862z"/>
<path opacity="0.2" fill="#A6F3F7" d="M68.058,103.337c0,0,1.628-0.771,2.874-2.516l6.223,4.239c0,0-0.124,4.25-6.405,3.059
	L68.058,103.337z"/>
<path fill="#4C331A" d="M100.909,59.498c0,0-5.464-6.33-9.103-6.621c-3.64-0.29-27.784,14.506-31.529,31.694
	c-2.943,10.531,0,17.234,0,17.234l11.417,7.47c0,0-5.723-4.597-0.753-19.918c4.97-15.32,15.343-25.332,26.243-27.029
	c10.901-1.698,4.389-2.83,4.389-2.83"/>
<g>
	<path fill="#2D1A08" d="M91.695,52.873c0.039,0,0.076,0.001,0.111,0.004c3.639,0.291,9.103,6.621,9.103,6.621h0.664
		c0,0,6.513,1.132-4.389,2.83c-10.9,1.697-21.273,11.709-26.243,27.029c-4.97,15.321,0.753,19.918,0.753,19.918l-11.417-7.47
		c0,0-2.943-6.703,0-17.234C63.986,67.55,87.701,52.873,91.695,52.873 M91.695,51.873c-2.379,0-9.562,3.898-16.46,9.701
		C70.223,65.79,61.494,74.349,59.306,84.33c-2.993,10.735-0.071,17.591,0.055,17.878c0.078,0.178,0.206,0.328,0.368,0.435
		l11.417,7.47c0.169,0.11,0.359,0.163,0.547,0.163c0.311,0,0.615-0.144,0.811-0.412c0.313-0.432,0.232-1.033-0.184-1.367
		c-0.042-0.036-5.075-4.504-0.428-18.83c4.718-14.544,14.468-24.641,25.446-26.35c6.043-0.941,7.154-1.712,7.164-2.892
		c0.009-0.949-0.92-1.592-2.759-1.912c-0.057-0.01-0.113-0.015-0.171-0.015h-0.213c-1.309-1.459-5.929-6.334-9.475-6.618
		C91.825,51.875,91.762,51.873,91.695,51.873L91.695,51.873z"/>
</g>
<path opacity="0.48" fill="#A6F3F7" d="M65.401,76.142c0,0-2.658,3.52-3.161,7.469l7.397,4.094c0,0,1.754-4.812,3.211-7.469
	L65.401,76.142z"/>
<path opacity="0.48" fill="#A6F3F7" d="M61.354,86.148l7.517,3.974c0,0-1.265,4.98-1.327,7.661l-7.053-3.208
	C60.492,94.575,60.397,90.266,61.354,86.148z"/>
<path opacity="0.48" fill="#A6F3F7" d="M66.669,74.132c0,0,2.824-4.549,4.882-6.033l6.704,4.298c0,0-3.333,3.562-4.597,6.141
	L66.669,74.132z"/>
<path opacity="0.48" fill="#A6F3F7" d="M72.849,66.52c0,0,3.54-3.881,6.412-5.508l6.032,4.49c0,0-3.64,2.937-5.58,5.182
	L72.849,66.52z"/>
<path opacity="0.48" fill="#A6F3F7" d="M80.651,59.96c0,0,3.391-2.729,5.597-3.447l6.468,4.74c0,0-1.71,0.766-5.284,3.16
	L80.651,59.96z"/>
<path opacity="0.48" fill="#A6F3F7" d="M60.685,96.778l6.56,3.447c0,0-0.048,3.164,1.627,6.322l-6.846-4.551
	C62.025,101.997,60.862,100.37,60.685,96.778z"/>
<g>
	<g>
		<g>
			<path fill="#394244" d="M98.896,97.92c-8.253-0.001-16.607-7.479-16.607-21.773c0-23.143,12.232-27.516,16.253-28.953
				c0.594-0.213,1.233-0.32,1.902-0.32c5.504,0,13.466,7.756,13.466,21.78c0,16.774-3.477,25.853-10.94,28.567
				C101.693,97.685,100.323,97.92,98.896,97.92C98.897,97.92,98.897,97.92,98.896,97.92z M95.001,89.215
				c2.218,1.442,4.189,1.752,5.474,1.752c0.747,0,1.335-0.103,1.703-0.191l-1.938-6.664c-2.105-0.416-3.283-0.776-3.908-1.011
				L95.001,89.215z M108.03,75.757c1.014-6.219,0.476-9.588,0.138-10.895l-3.108,2.594c0.423,3.123,0.142,5.973,0.013,6.982
				L108.03,75.757z M93.095,70.731c0.342-4.248,1.991-6.146,2.81-6.837l-4.012-5.553c-2.656,4.412-3.282,9.363-3.409,10.731
				L93.095,70.731z"/>
		</g>
		<g>
			<path fill="#2A3535" d="M100.444,47.374c5.488,0,12.966,7.86,12.966,21.28c0,14.903-2.685,25.214-10.611,28.098
				c-1.222,0.444-2.542,0.669-3.902,0.669c-7.461,0-16.107-6.77-16.107-21.273c0-21.325,10.281-26.466,15.921-28.482
				C99.254,47.47,99.837,47.374,100.444,47.374 M93.553,71.427c0.265-5.914,3.048-7.423,3.048-7.423l-4.737-6.557
				c-3.582,5.469-3.908,11.966-3.908,11.966L93.553,71.427 M108.416,76.476c1.586-9.079,0-12.472,0-12.472l-3.891,3.247
				c0.577,3.893,0,7.491,0,7.491L108.416,76.476 M100.475,91.467c1.438,0,2.322-0.354,2.322-0.354l-2.162-7.435
				c-3.746-0.72-4.662-1.279-4.662-1.279l-1.532,7.042C96.812,91.072,98.954,91.467,100.475,91.467 M100.444,46.374
				c-0.727,0-1.423,0.118-2.071,0.35c-4.102,1.466-16.584,5.929-16.584,29.423c0,14.622,8.606,22.273,17.107,22.273
				c1.485,0,2.913-0.245,4.244-0.729c7.688-2.797,11.27-12.023,11.27-29.037C114.41,54.308,106.152,46.374,100.444,46.374
				L100.444,46.374z M89.021,68.734c0.184-1.62,0.827-5.673,2.919-9.473l3.304,4.573c-0.886,0.896-2.175,2.752-2.582,6.21
				L89.021,68.734L89.021,68.734z M105.59,67.665l2.263-1.889c0.273,1.545,0.502,4.496-0.216,9.259l-2.025-0.902
				C105.746,72.917,105.928,70.412,105.59,67.665L105.59,67.665z M95.565,88.98l1.137-5.223c0.675,0.216,1.677,0.486,3.144,0.785
				l1.7,5.847c-0.295,0.044-0.655,0.078-1.07,0.078C99.315,90.467,97.56,90.198,95.565,88.98L95.565,88.98z"/>
		</g>
	</g>
	<path fill="#798988" d="M102.168,49.968c-5.643,2.018-15.921,7.159-15.921,28.483c0,17.146,9.294,22.768,17.218,19.886
		c7.925-2.884,12.104-12.618,12.104-27.521S107.646,48.009,102.168,49.968z M91.412,71.718c0,0,0.325-6.497,3.912-11.967
		l4.735,6.557c0,0-2.782,1.511-3.048,7.422L91.412,71.718z M97.898,91.747l1.535-7.041c0,0,0.914,0.558,4.66,1.277l2.16,7.438
		C106.253,93.421,102.509,94.918,97.898,91.747z M107.985,77.05c0,0,0.575-3.603,0-7.492l3.889-3.25c0,0,1.586,3.395,0,12.471
		L107.985,77.05z"/>
	<g opacity="0.23">
		<path fill="#D0EDF4" d="M103.888,50.673c4.479,0,10.682,7,10.682,20.143c0,14.455-4.065,23.896-11.446,26.582
			c-1.201,0.437-2.424,0.658-3.636,0.658c-5.646,0-12.24-5.135-12.24-19.604c0-22.086,11.483-26.192,15.258-27.542
			C102.944,50.753,103.409,50.673,103.888,50.673 M97.011,74.73c0.195,0,0.39-0.058,0.557-0.169
			c0.264-0.177,0.428-0.469,0.442-0.786c0.232-5.172,2.519-6.583,2.526-6.588c0.252-0.138,0.434-0.377,0.497-0.657
			c0.064-0.28,0.004-0.574-0.164-0.808l-4.735-6.557c-0.188-0.261-0.49-0.415-0.811-0.415c-0.008,0-0.015,0-0.022,0
			c-0.329,0.007-0.634,0.176-0.813,0.451c-3.693,5.632-4.062,12.189-4.075,12.466c-0.021,0.439,0.246,0.842,0.661,0.991l5.6,2.012
			C96.783,74.71,96.897,74.73,97.011,74.73 M111.874,79.779c0.162,0,0.324-0.039,0.471-0.117c0.271-0.146,0.461-0.407,0.515-0.711
			c1.621-9.279-0.009-12.916-0.079-13.065c-0.132-0.281-0.386-0.486-0.689-0.553c-0.071-0.017-0.145-0.024-0.217-0.024
			c-0.232,0-0.46,0.081-0.642,0.233l-3.889,3.249c-0.267,0.224-0.398,0.569-0.348,0.914c0.544,3.681,0.007,7.154,0.002,7.188
			c-0.071,0.447,0.167,0.887,0.581,1.071l3.889,1.729C111.597,79.75,111.735,79.779,111.874,79.779 M103.934,94.774
			c1.583,0,2.582-0.381,2.69-0.424c0.478-0.191,0.732-0.714,0.589-1.208l-2.16-7.438c-0.104-0.36-0.402-0.632-0.771-0.703
			c-3.359-0.646-4.326-1.148-4.328-1.148l0,0c-0.159-0.098-0.339-0.146-0.521-0.146c-0.134,0-0.268,0.026-0.394,0.081
			c-0.297,0.127-0.515,0.39-0.584,0.706l-1.535,7.041c-0.086,0.396,0.076,0.807,0.411,1.037
			C99.979,94.392,102.383,94.774,103.934,94.774 M103.888,49.673c-0.591,0-1.167,0.097-1.72,0.295
			c-5.643,2.018-15.921,7.159-15.921,28.483c0,14.323,6.485,20.604,13.24,20.604c1.331,0,2.673-0.244,3.978-0.719
			c7.925-2.884,12.104-12.618,12.104-27.521C115.57,57.416,109.163,49.673,103.888,49.673L103.888,49.673z M97.011,73.73l-5.6-2.012
			c0,0,0.325-6.497,3.912-11.967l4.735,6.557C100.059,66.308,97.277,67.819,97.011,73.73L97.011,73.73z M111.874,78.779
			l-3.889-1.729c0,0,0.575-3.603,0-7.492l3.889-3.25C111.874,66.308,113.459,69.703,111.874,78.779L111.874,78.779z M103.934,93.774
			c-1.521,0-3.664-0.396-6.036-2.027l1.535-7.041c0,0,0.914,0.558,4.66,1.277l2.16,7.438
			C106.253,93.421,105.371,93.774,103.934,93.774L103.934,93.774z"/>
	</g>
	<path opacity="0.5" fill="#404949" d="M102.989,70.459c-1.19,0.425-3.361,1.512-3.361,6.018c0,3.615,1.962,4.803,3.636,4.196
		c1.674-0.611,2.553-2.666,2.553-5.812C105.816,71.715,104.146,70.047,102.989,70.459z"/>
	<g>
		<path fill="#233030" d="M100.435,47.375c2.01,0,4.286,1.06,6.366,3.055c4.46,2.23,8.769,9.396,8.769,20.385
			c0,14.903-4.18,24.638-12.104,27.521c-1.304,0.474-2.644,0.718-3.974,0.718c-3.179,0-6.299-1.393-8.712-4.358
			c-4.478-3.211-7.991-9.308-7.991-18.55c0-21.325,10.281-26.466,15.921-28.482C99.252,47.471,99.832,47.375,100.435,47.375
			 M93.553,71.427c0.265-5.914,3.048-7.423,3.048-7.423l-2.088-2.89c-2.083,3.788-2.783,7.757-3.001,9.578L93.553,71.427
			 M108.416,76.476c0.587-3.362,0.739-5.941,0.697-7.859l-1.128,0.941c0.42,2.843,0.226,5.525,0.091,6.766L108.416,76.476
			 M100.486,91.461c1.431,0,2.312-0.348,2.312-0.348l-1.69-5.812c-1.286-0.36-1.674-0.596-1.674-0.596l-1.401,6.426
			C98.956,91.378,99.787,91.461,100.486,91.461 M100.435,46.375c-0.723,0-1.417,0.117-2.062,0.348
			c-4.102,1.466-16.584,5.928-16.584,29.423c0,11.468,5.148,16.984,8.301,19.284c2.472,2.983,5.806,4.624,9.402,4.624
			c1.444,0,2.896-0.262,4.315-0.778c8.35-3.038,12.763-12.88,12.763-28.461c0-12.137-4.916-18.984-9.185-21.21
			C105.171,47.521,102.708,46.375,100.435,46.375L100.435,46.375z M92.613,70.026c0.243-1.577,0.806-4.25,2.055-6.99l0.576,0.798
			c-0.886,0.896-2.175,2.753-2.582,6.21L92.613,70.026L92.613,70.026z M99.223,90.362l0.938-4.3
			c0.045,0.015,0.091,0.029,0.139,0.044l1.245,4.28c-0.293,0.042-0.649,0.075-1.059,0.075
			C100.069,90.461,99.647,90.428,99.223,90.362L99.223,90.362z"/>
	</g>
</g>
</svg>
