<?xml version="1.0" encoding="utf-8"?>
<!-- Generator: Adobe Illustrator 14.0.0, SVG Export Plug-In . SVG Version: 6.00 Build 43363)  -->
<!DOCTYPE svg PUBLIC "-//W3C//DTD SVG 1.1//EN" "http://www.w3.org/Graphics/SVG/1.1/DTD/svg11.dtd">
<svg version="1.1" id="Layer_1" xmlns="http://www.w3.org/2000/svg" xmlns:xlink="http://www.w3.org/1999/xlink" x="0px" y="0px"
	 width="136.667px" height="119.333px" viewBox="0 0 136.667 119.333" enable-background="new 0 0 136.667 119.333"
	 xml:space="preserve">
<g id="Layer_2">
	<g opacity="0.19">
		<path fill="#F9CCC7" d="M68.796,114.642c-1.057,0-1.95-0.421-2.705-0.815c-0.273-0.144-3.292-1.765-7.83-4.201
			c-13.27-7.129-48.524-26.064-50.385-26.922c-0.596-0.236-2.177-0.869-2.655-2.59c-0.477-1.714,0.467-2.961,1.225-3.963
			l0.224-0.297c0.269-0.357,1.065-1.393,2.137-2.785c2.575-3.344,9.351-12.145,10.226-13.53c0.508-1.109,1.47-2.997,4.466-2.997
			c0.184,0,0.384,0.006,0.603,0.02c0.674,0.042,4.231,0.194,7.67,0.34c4.566,0.194,7.816,0.334,9.064,0.402
			c0.378-0.521,1.598-1.98,6.868-7.995c-1.246-3.319-1.807-6.992-1.893-12.109c-0.234-13.926,6.848-26.597,16.84-30.129
			c1.434-0.507,2.88-0.765,4.298-0.765c1.127,0,2.243,0.163,3.314,0.484c0.039,0.012,0.078,0.024,0.115,0.037
			c0.062,0.021,0.246,0.089,0.5,0.217c0.024,0.012,0.896,0.483,0.896,0.483s1.737,0.97,1.764,0.985
			c1.301,0.729,2.906,1.637,3.971,2.242c0.01,0.005,1.273,0.726,1.277,0.728c0.312,0.191,0.621,0.4,0.92,0.621
			c0.06,0.042,0.14,0.104,0.219,0.166c0.218,0.165,0.459,0.363,0.697,0.572c0.074,0.063,0.137,0.116,0.196,0.172
			c0.533,0.481,1.068,1.048,1.568,1.662c0.045,0.054,0.114,0.142,0.181,0.228c0.162,0.205,0.352,0.455,0.532,0.712l0.133,0.19
			c0.229,0.338,0.433,0.649,0.626,0.972c0.237,0.399,0.432,0.754,0.619,1.12l0.09,0.18c0.157,0.315,0.292,0.602,0.426,0.894
			c0.006,0.013,0.164,0.386,0.164,0.386c0.104,0.241,0.232,0.561,0.354,0.886l-2.77,1.155l2.838-0.976
			c0.151,0.415,0.284,0.81,0.409,1.214l0.062,0.212c0.104,0.353,0.199,0.692,0.285,1.036c0.024,0.093,0.06,0.228,0.092,0.365
			c0.072,0.305,0.142,0.616,0.207,0.931l0.064,0.325c0.084,0.441,0.157,0.875,0.221,1.315c0.004,0.027,0.02,0.143,0.021,0.171
			c0.055,0.388,0.102,0.771,0.139,1.158l0.029,0.331c0.035,0.414,0.061,0.741,0.077,1.071l0.022,0.424
			c0.018,0.453,0.031,0.912,0.031,1.377c0,10.376-3.312,16.711-6.488,22.152c26.174,16.11,42.506,25.938,46.101,27.734
			c3.045,1.522,5.922,2.96,5.248,5.812c-0.099,0.422-0.74,2.521-3.61,2.521l0,0c-0.675,0-1.936-0.085-5.09-0.812
			c-1.607-0.369-7.553-0.652-10.091-0.772c-0.629-0.03-1.16-0.057-1.55-0.077c-0.223,0.397-0.536,0.961-0.907,1.625
			c-1.367,2.45-4.571,8.188-4.922,8.942l-0.118,0.269c-0.363,0.836-1.328,3.053-4.311,3.053c-0.256,0-0.539-0.016-0.856-0.053
			c-1.651-0.195-12.952-2.021-15.054-2.361c-0.473,0.504-1.322,1.396-2.648,2.789c-3.173,3.334-9.775,10.269-10.521,11.25
			C72.05,112.98,70.942,114.642,68.796,114.642L68.796,114.642z"/>
		<path fill="#5CA5BC" d="M66.949,9.306c0.85,0,1.669,0.123,2.453,0.358c0.016,0.005,0.062,0.027,0.128,0.06
			c0.019,0.01,0.05,0.026,0.071,0.038c0.055,0.029,0.113,0.059,0.189,0.102c0.039,0.021,0.09,0.047,0.135,0.071
			c0.078,0.044,0.162,0.089,0.257,0.142c0.046,0.024,0.096,0.051,0.144,0.077c0.113,0.064,0.231,0.13,0.363,0.202
			c0.042,0.024,0.087,0.047,0.129,0.072c0.15,0.084,0.309,0.171,0.475,0.264c0.027,0.016,0.057,0.032,0.084,0.048
			c0.195,0.108,0.396,0.221,0.604,0.337c0.007,0.004,0.013,0.007,0.019,0.01c1.367,0.768,2.969,1.673,4.029,2.276
			c0.002,0.001,0.004,0.002,0.006,0.003c0.182,0.104,0.346,0.196,0.491,0.279c0.22,0.125,0.378,0.216,0.496,0.283
			c0.062,0.034,0.122,0.066,0.179,0.101l0.012,0.006l0,0c0.004,0.003,0.008,0.006,0.013,0.008c0.239,0.146,0.476,0.306,0.703,0.475
			c0.053,0.038,0.104,0.078,0.153,0.117c0.192,0.146,0.381,0.3,0.565,0.462c0.045,0.039,0.092,0.077,0.138,0.119
			c0.448,0.406,0.875,0.857,1.275,1.351c0.042,0.05,0.084,0.103,0.123,0.154c0.158,0.202,0.316,0.41,0.468,0.624
			c0.043,0.062,0.085,0.123,0.129,0.186c0.175,0.255,0.345,0.517,0.507,0.789c0.008,0.014,0.018,0.026,0.024,0.039
			c0.173,0.292,0.339,0.595,0.498,0.906c0.03,0.061,0.062,0.125,0.094,0.187c0.123,0.247,0.241,0.5,0.358,0.758
			c0.037,0.086,0.076,0.173,0.111,0.261c0.114,0.268,0.226,0.543,0.33,0.823c0.021,0.061,0.047,0.119,0.068,0.179
			c0.124,0.342,0.242,0.69,0.354,1.048c0.021,0.068,0.039,0.139,0.059,0.207c0.086,0.287,0.168,0.579,0.24,0.875
			c0.029,0.111,0.059,0.222,0.084,0.334c0.066,0.28,0.131,0.564,0.189,0.851c0.02,0.099,0.039,0.196,0.059,0.295
			c0.074,0.381,0.14,0.769,0.195,1.162c0.01,0.059,0.014,0.118,0.022,0.177c0.048,0.336,0.088,0.676,0.122,1.021
			c0.013,0.125,0.021,0.253,0.033,0.379c0.024,0.295,0.047,0.593,0.062,0.893c0.006,0.125,0.016,0.25,0.02,0.375
			c0.018,0.417,0.029,0.835,0.029,1.26c0,11.133-3.957,16.979-7.562,23.167c18.187,11.205,43.862,26.919,48.831,29.403
			c4.145,2.072,4.209,2.649,2.98,2.649c-1.102,0-3.24-0.464-4.416-0.735c-2.488-0.573-11.682-0.859-12.64-0.955
			c-0.175-0.019-0.334-0.028-0.479-0.028c-0.656,0-1.062,0.222-1.531,1.081c-0.574,1.054-5.745,10.247-6.223,11.301
			c-0.426,0.932-0.549,1.562-1.699,1.562c-0.149,0-0.316-0.01-0.504-0.032c-1.629-0.19-14.074-2.202-15.226-2.394
			c-0.431-0.072-0.712-0.129-0.937-0.129c-0.379,0-0.596,0.163-1.075,0.703c-0.767,0.861-13.022,13.596-13.789,14.746
			c-0.438,0.656-0.741,0.952-1.176,0.952c-0.327,0-0.727-0.167-1.313-0.474c-1.214-0.637-56.975-30.645-58.412-31.217
			c-1.437-0.576-1.149-0.767,0-2.3c1.149-1.53,12.161-15.702,12.64-16.756c0.432-0.951,0.631-1.355,1.788-1.355
			c0.126,0,0.264,0.005,0.415,0.014c1.532,0.096,15.896,0.671,17.14,0.768c0.08,0.006,0.157,0.008,0.232,0.008
			c1.086,0,1.612-0.626,1.971-1.253c0.198-0.347,4.159-4.893,7.939-9.201c-1.472-3.144-2.282-6.568-2.386-12.727
			c-0.203-12.064,5.746-24.036,14.84-27.25C64.789,9.497,65.892,9.306,66.949,9.306 M66.95,3.306
			C66.949,3.306,66.949,3.306,66.95,3.306c-1.76,0-3.543,0.315-5.301,0.937c-11.17,3.948-19.092,17.83-18.837,33.007
			c0.078,4.634,0.531,8.193,1.496,11.384c-2.537,2.9-3.987,4.578-4.846,5.6c-1.659-0.077-4.222-0.187-7.563-0.329
			c-3.264-0.139-6.964-0.296-7.608-0.337c-0.287-0.018-0.55-0.026-0.791-0.026c-4.614,0-6.4,3.08-7.088,4.522
			c-1.209,1.784-7.544,10.011-9.981,13.175c-1.084,1.407-1.888,2.452-2.158,2.812L4.054,74.34c-0.843,1.113-2.597,3.434-1.723,6.576
			c0.829,2.981,3.325,4.123,4.352,4.541c2.926,1.438,37.177,19.836,50.157,26.809c5.243,2.814,7.573,4.066,7.861,4.218
			c1.094,0.573,2.436,1.158,4.096,1.158c2.425,0,4.458-1.157,6.042-3.44c1.097-1.318,7.509-8.055,10.277-10.961
			c0.639-0.674,1.151-1.212,1.563-1.646c3.825,0.618,12.147,1.952,13.616,2.126c0.42,0.05,0.814,0.074,1.205,0.074
			c2.258,0,5.315-0.844,7.062-4.855l0.087-0.197c0.468-0.949,3.513-6.404,4.821-8.748c2.27,0.108,7.915,0.389,9.256,0.688
			c3.413,0.787,4.872,0.889,5.762,0.889c3.979,0,6.006-2.604,6.531-4.832c1.219-5.162-3.623-7.582-6.827-9.185
			c-2.005-1.003-10.358-5.765-43.401-26.088c2.86-5.238,5.449-11.542,5.449-21.115c0-0.505-0.016-1.004-0.035-1.5
			c-0.004-0.102-0.01-0.208-0.016-0.315l-0.006-0.1c-0.001-0.018-0.001-0.035-0.002-0.053c-0.021-0.361-0.046-0.719-0.077-1.074
			L90.1,27.231c-0.011-0.131-0.022-0.262-0.035-0.392c-0.04-0.405-0.089-0.816-0.146-1.223c-0.012-0.091-0.021-0.176-0.035-0.26
			c-0.062-0.441-0.145-0.926-0.235-1.404l-0.032-0.165l-0.021-0.108c-0.008-0.037-0.014-0.073-0.021-0.109
			c-0.07-0.343-0.146-0.681-0.226-1.015c-0.034-0.143-0.071-0.289-0.109-0.436c-0.089-0.358-0.188-0.712-0.29-1.061
			c-0.031-0.106-0.054-0.185-0.076-0.263c-0.146-0.477-0.297-0.922-0.459-1.369c-0.008-0.019-0.015-0.038-0.021-0.057l-0.062-0.159
			c-0.004-0.007-0.006-0.013-0.008-0.02c-0.132-0.351-0.271-0.697-0.414-1.035c-0.037-0.089-0.074-0.178-0.113-0.267l-0.021-0.046
			c-0.017-0.037-0.032-0.074-0.05-0.111c-0.148-0.327-0.298-0.646-0.453-0.958c-0.012-0.024-0.023-0.047-0.036-0.07l-0.039-0.078
			c-0.012-0.025-0.036-0.072-0.049-0.097c-0.216-0.422-0.442-0.833-0.672-1.221c-0.021-0.038-0.047-0.079-0.073-0.121
			c-0.205-0.341-0.424-0.68-0.666-1.036c-0.017-0.023-0.033-0.047-0.049-0.071l-0.07-0.101l-0.035-0.051
			c-0.01-0.015-0.021-0.029-0.029-0.043c-0.205-0.29-0.417-0.571-0.633-0.845c-0.072-0.095-0.149-0.191-0.228-0.285
			c-0.586-0.717-1.216-1.383-1.874-1.979c-0.078-0.072-0.158-0.142-0.24-0.21c-0.261-0.229-0.547-0.464-0.836-0.685
			c-0.091-0.069-0.181-0.138-0.272-0.205c-0.349-0.256-0.7-0.494-1.048-0.709c-0.069-0.044-0.141-0.087-0.213-0.128
			c-0.08-0.046-0.16-0.092-0.242-0.137l-0.114-0.065l-0.358-0.205L79.36,8.356l-0.331-0.188c-0.013-0.007-0.025-0.014-0.037-0.021
			l0,0c-1.059-0.602-2.648-1.501-4.019-2.27c-0.003-0.002-0.007-0.004-0.009-0.006c-0.021-0.011-0.039-0.021-0.059-0.032
			l-0.221-0.124l-0.395-0.22L74.19,5.439l-0.414-0.23c-0.048-0.027-0.097-0.055-0.146-0.082c-0.028-0.016-0.028-0.016-0.059-0.032
			l-0.316-0.176l-0.193-0.105L72.91,4.729L72.837,4.69c-0.029-0.017-0.061-0.034-0.09-0.05l-0.095-0.049
			c-0.083-0.046-0.157-0.085-0.226-0.121c-0.002-0.001-0.051-0.026-0.053-0.027l-0.051-0.028c-0.031-0.016-0.064-0.033-0.096-0.048
			c-0.217-0.109-0.512-0.25-0.879-0.376c-0.074-0.026-0.148-0.05-0.227-0.073C69.774,3.512,68.369,3.306,66.95,3.306L66.95,3.306
			L66.95,3.306z"/>
	</g>
	
		<path opacity="0.65" fill="#F9CCC7" stroke="#020202" stroke-width="5" stroke-linecap="round" stroke-linejoin="round" enable-background="new    " d="
		M125.511,82.92c-4.969-2.484-30.646-18.199-48.832-29.404c3.604-6.188,7.562-12.034,7.562-23.167c0-0.425-0.014-0.844-0.029-1.26
		c-0.006-0.125-0.014-0.249-0.021-0.375c-0.017-0.3-0.038-0.597-0.063-0.893c-0.01-0.126-0.021-0.254-0.032-0.379
		c-0.034-0.345-0.074-0.685-0.122-1.021c-0.01-0.059-0.014-0.118-0.021-0.177c-0.058-0.394-0.123-0.781-0.195-1.162
		c-0.021-0.099-0.041-0.197-0.059-0.295c-0.061-0.287-0.123-0.571-0.189-0.851c-0.026-0.112-0.055-0.223-0.084-0.334
		c-0.073-0.296-0.155-0.588-0.241-0.875c-0.021-0.068-0.038-0.139-0.06-0.207c-0.109-0.357-0.229-0.706-0.353-1.048
		c-0.022-0.06-0.048-0.118-0.069-0.179c-0.104-0.279-0.215-0.555-0.33-0.823c-0.035-0.088-0.074-0.174-0.11-0.261
		c-0.117-0.258-0.235-0.511-0.358-0.758c-0.031-0.062-0.062-0.126-0.094-0.187c-0.159-0.311-0.325-0.613-0.498-0.906
		c-0.008-0.013-0.018-0.025-0.023-0.039c-0.164-0.272-0.334-0.534-0.508-0.789c-0.044-0.062-0.086-0.124-0.129-0.186
		c-0.15-0.214-0.309-0.422-0.468-0.624c-0.039-0.051-0.081-0.104-0.123-0.154c-0.401-0.494-0.827-0.945-1.276-1.351
		c-0.045-0.042-0.092-0.08-0.137-0.119c-0.186-0.162-0.373-0.316-0.564-0.462c-0.051-0.04-0.103-0.079-0.154-0.117
		c-0.229-0.168-0.465-0.329-0.703-0.475c-0.005-0.002-0.01-0.005-0.012-0.008l0,0l-0.014-0.004c-0.058-0.035-0.119-0.067-0.18-0.101
		c-0.118-0.067-0.277-0.159-0.496-0.283c-0.146-0.083-0.311-0.175-0.492-0.279c0-0.001-0.003-0.002-0.005-0.003
		c-1.062-0.604-2.661-1.508-4.03-2.276c-0.004-0.003-0.011-0.006-0.018-0.01c-0.208-0.116-0.408-0.229-0.604-0.337
		c-0.028-0.016-0.058-0.032-0.086-0.048c-0.166-0.093-0.321-0.18-0.474-0.264c-0.042-0.025-0.087-0.048-0.129-0.072
		c-0.132-0.072-0.25-0.138-0.364-0.202c-0.047-0.026-0.097-0.052-0.143-0.077c-0.096-0.053-0.178-0.098-0.258-0.142
		c-0.045-0.024-0.094-0.05-0.133-0.071c-0.076-0.043-0.136-0.073-0.19-0.102c-0.022-0.012-0.054-0.028-0.071-0.038
		c-0.066-0.033-0.111-0.055-0.128-0.06C67.643,9.138,65.703,9.174,63.65,9.9c-9.094,3.214-15.042,15.186-14.84,27.25
		c0.104,6.159,0.914,9.583,2.386,12.727c-3.78,4.309-7.742,8.854-7.939,9.201c-0.383,0.67-0.958,1.34-2.203,1.245
		c-1.245-0.096-15.608-0.671-17.14-0.767c-1.531-0.096-1.723,0.287-2.203,1.341C21.232,61.95,10.22,76.122,9.071,77.653
		c-1.149,1.533-1.437,1.725,0,2.299c1.437,0.573,57.197,30.582,58.412,31.217c1.367,0.717,1.724,0.67,2.489-0.479
		c0.768-1.15,13.023-13.885,13.789-14.746c0.767-0.861,0.859-0.768,2.012-0.574c1.15,0.19,13.598,2.201,15.225,2.394
		c1.629,0.192,1.724-0.479,2.203-1.53c0.479-1.054,5.648-10.247,6.225-11.301c0.574-1.053,1.054-1.148,2.011-1.053
		c0.958,0.096,10.149,0.382,12.64,0.955C126.565,85.409,133.364,86.845,125.511,82.92z"/>
	<path fill="none" stroke="#646661" stroke-width="2" d="M67.483,111.168c-1.214-0.637-56.975-30.645-58.412-31.217
		c-1.437-0.576-1.149-0.767,0-2.3c1.149-1.53,12.161-15.702,12.64-16.756c0.479-1.054,0.671-1.438,2.203-1.341
		c1.532,0.096,15.896,0.671,17.14,0.767c1.245,0.095,1.819-0.575,2.203-1.245c0.383-0.671,14.842-17.046,14.842-17.046
		s59.561,36.963,67.412,40.889c7.853,3.925,1.054,2.488-1.438,1.914c-2.488-0.574-11.682-0.86-12.64-0.957
		c-0.957-0.096-1.437,0-2.011,1.054c-0.575,1.054-5.746,10.247-6.225,11.301c-0.48,1.052-0.574,1.724-2.203,1.53
		c-1.627-0.191-14.074-2.202-15.225-2.393c-1.15-0.193-1.245-0.287-2.012,0.573c-0.766,0.861-13.022,13.597-13.789,14.746
		C69.207,111.838,68.85,111.883,67.483,111.168z"/>
	<path fill="#969B91" d="M67.483,111.168c-1.214-0.637-56.975-30.645-58.412-31.217c-1.437-0.576-1.149-0.767,0-2.3
		c1.149-1.53,12.161-15.702,12.64-16.756c0.479-1.054,0.671-1.438,2.203-1.341c1.532,0.096,15.896,0.671,17.14,0.767
		c1.245,0.095,1.819-0.575,2.203-1.245c0.383-0.671,14.842-17.046,14.842-17.046s59.561,36.963,67.412,40.889
		c7.853,3.925,1.054,2.488-1.438,1.914c-2.488-0.574-11.682-0.86-12.64-0.957c-0.957-0.096-1.437,0-2.011,1.054
		c-0.575,1.054-5.746,10.247-6.225,11.301c-0.48,1.052-0.574,1.724-2.203,1.53c-1.627-0.191-14.074-2.202-15.225-2.393
		c-1.15-0.193-1.245-0.287-2.012,0.573c-0.766,0.861-13.022,13.597-13.789,14.746C69.207,111.838,68.85,111.883,67.483,111.168z"/>
	<path fill="#D5D8D2" d="M12.136,77.272c1.34-1.057,9.097-12.641,9.767-14.363c0.67-1.723,1.436-1.629,3.064-1.437
		c1.627,0.188,16.566,0.286,17.907,0.286c1.34,0,1.532-0.957,2.106-1.723c0.574-0.767,11.204-13.598,11.874-14.364
		c0.67-0.767,1.054-2.011,2.394-1.149c1.341,0.862,58.892,36.1,62.241,37.727c3.353,1.629,1.246,0.862,0,0.862
		c-1.243,0-1.243,0-1.243,0s-8.043-0.671-9.386-0.862c-1.34-0.189-1.817-0.211-2.394,1.043c-0.573,1.256-6.416,11.119-6.895,11.885
		c-0.479,0.768-0.861,1.056-2.012,0.957c-1.148-0.096-12.354-2.01-14.268-2.297s-2.682-0.287-3.545,0.959
		c-0.86,1.242-11.681,12.064-12.447,12.927c-0.765,0.862-0.862,0.479-2.202,0c-1.34-0.479-50.367-26.524-54.389-28.728
		C11.12,77.979,12.136,77.272,12.136,77.272z"/>
	<path fill="#F8F9F7" d="M18.36,75.165c0.575-0.767,7.182-9,7.757-9.959c0.574-0.957,1.053-1.147,2.298-0.957
		c1.245,0.189,16.948,0.861,18.289,0.766c1.341-0.096,1.246-0.86,1.819-1.53c0.575-0.672,11.013-15.514,11.013-15.514
		s51.898,29.589,52.569,30.065c0.671,0.48,1.63,1.727-0.766,1.535c-2.396-0.193-4.213,0.039-5.459,0.02
		c-1.244-0.02-1.147,0.172-1.627,1.033s-7.276,10.819-7.758,11.586c-0.479,0.766-0.955,1.437-2.104,1.244
		c-1.147-0.19-13.502-1.436-14.459-1.529c-0.958-0.098-0.862,0.094-1.63,0.953c-0.766,0.863-7.946,8.715-9.191,9.963
		c-1.244,1.242-1.628,1.148-3.064,0.572C64.61,102.84,20.66,77.747,19.031,76.838C17.402,75.93,18.36,75.165,18.36,75.165z"/>
	<path fill="#73E4EF" d="M20.946,74.59c0.734-0.983,5.553-7.662,5.936-8.428c0.383-0.766,0.766-0.959,2.298-0.863
		c1.533,0.099,16.278,0.673,17.523,0.77c1.246,0.094,1.915-0.385,2.585-1.342s10.534-13.98,10.534-13.98l0.669-1.341
		c0,0,46.155,26.04,48.453,27.432c2.3,1.391,3.83,2.156,1.147,2.062c-2.68-0.097-3.924,0.112-5.168,0.009
		c-1.245-0.104-1.629,0.375-2.014,1.141c-0.382,0.766-6.605,9.957-7.468,11.203s-1.053,1.246-2.2,1.148
		c-1.152-0.096-12.354-1.341-13.408-1.531c-1.051-0.191-1.627-0.096-2.01,0.479c-0.384,0.575-8.025,8.81-9.183,9.959
		c-1.16,1.147-1.917,0.573-3.166,0c-1.25-0.575-43.478-23.657-44.531-24.47C19.893,76.027,20.053,75.786,20.946,74.59z"/>
	<path fill="#32999E" d="M24.967,75.165c0.575-1.053,3.543-6.32,4.118-7.086c0.575-0.768,0.958-0.768,1.724-0.768
		s17.714,0.48,18.768,0.48c1.053,0,1.532-1.056,2.106-1.918c0.575-0.86,10.151-13.979,10.151-13.979s44.24,24.413,45.387,24.941
		c1.147,0.527,1.437,0.912,0,0.912s-3.542,0-4.404,0c-0.86,0-1.053-0.097-1.724,0.957c-0.67,1.055-6.225,10.532-6.799,11.203
		c-0.574,0.67-0.862,0.959-2.299,0.766c-1.437-0.189-12.64-0.86-14.076-1.051c-1.436-0.193-1.436,0.211-2.297,1.11
		c-0.863,0.899-6.492,7.026-6.98,7.603c-0.489,0.572-1.525,1.055-2.779,0.479c-1.254-0.572-38.79-21.357-39.938-21.979
		c-1.149-0.621-1.296-0.422-0.958-1.353"/>
	<g>
		<g>
			<defs>
				<path id="SVGID_1_" d="M24.967,75.165c0.575-1.053,3.543-6.32,4.118-7.086c0.575-0.768,0.958-0.768,1.724-0.768
					s17.714,0.48,18.768,0.48c1.053,0,1.532-1.056,2.106-1.918c0.575-0.86,10.151-13.979,10.151-13.979s44.24,24.413,45.387,24.941
					c1.147,0.527,1.437,0.912,0,0.912s-3.542,0-4.404,0c-0.86,0-1.053-0.097-1.724,0.957c-0.67,1.055-6.225,10.532-6.799,11.203
					c-0.574,0.67-0.862,0.959-2.299,0.766c-1.437-0.189-12.64-0.86-14.076-1.051c-1.436-0.193-1.436,0.211-2.297,1.11
					c-0.863,0.899-6.492,7.026-6.98,7.603c-0.489,0.572-1.525,1.055-2.779,0.479c-1.254-0.572-38.79-21.357-39.938-21.979
					c-1.149-0.621-1.296-0.422-0.958-1.353"/>
			</defs>
			<clipPath id="SVGID_2_">
				<use xlink:href="#SVGID_1_"  overflow="visible"/>
			</clipPath>
			<path id="_x32_" clip-path="url(#SVGID_2_)" fill="#50BCBC" d="M28.415,64.249c0,0-2.012,10.629,2.584,16.948
				c4.596,6.32,5.076,3.64,6.991,2.972c1.916-0.672,5.362-1.918,6.798,0c1.436,1.912,1.532,5.072,2.681,5.457
				c1.149,0.381,5.458-0.672,7.948,1.051c2.49,1.725,3.639,4.406,4.213,5.361c0.574,0.959,5.042,4.662,8.331,4.598
				c3.289-0.065,7.869-8.327,10.117-9.566c2.248-1.238,5.684-3.072,6.543-5.753c0.864-2.683,0.961-6.866,1.534-9.083
				c0.574-2.217,2.119-8.748,7.119-8.307c5,0.439,5.974,2.115,3.761,2.131c-2.209,0.016-5.423,0.225-6.476,2.427
				c-1.052,2.203-2.776,5.843-2.776,9.959c0,4.117,0.688,7.628,3.447,8.81c2.758,1.181,8.044-2.012,8.044-2.012l7.47-7.945
				l4.771-4.457l-6.687-4.545l-9.479-6.319c0,0-24.104-14.501-29.484-11.853C56.376,58.79,33.873,63.099,28.415,64.249z"/>
		</g>
		<g>
			<defs>
				<path id="SVGID_3_" d="M24.967,75.165c0.575-1.053,3.543-6.32,4.118-7.086c0.575-0.768,0.958-0.768,1.724-0.768
					s17.714,0.48,18.768,0.48c1.053,0,1.532-1.056,2.106-1.918c0.575-0.86,10.151-13.979,10.151-13.979s44.24,24.413,45.387,24.941
					c1.147,0.527,1.437,0.912,0,0.912s-3.542,0-4.404,0c-0.86,0-1.053-0.097-1.724,0.957c-0.67,1.055-6.225,10.532-6.799,11.203
					c-0.574,0.67-0.862,0.959-2.299,0.766c-1.437-0.189-12.64-0.86-14.076-1.051c-1.436-0.193-1.436,0.211-2.297,1.11
					c-0.863,0.899-6.492,7.026-6.98,7.603c-0.489,0.572-1.525,1.055-2.779,0.479c-1.254-0.572-38.79-21.357-39.938-21.979
					c-1.149-0.621-1.296-0.422-0.958-1.353"/>
			</defs>
			<clipPath id="SVGID_4_">
				<use xlink:href="#SVGID_3_"  overflow="visible"/>
			</clipPath>
			<path clip-path="url(#SVGID_4_)" fill="#7CE5E2" d="M40.097,66.737c0,0-3.925,0-5.841,2.299c-1.916,2.297-2.489,5.01-1.436,7.196
				c1.053,2.188,2.777,4.007,5.458,4.392c2.681,0.385,6.224-0.287,6.989,0.477c0.767,0.77,3.064,3.545,4.31,4.12
				c1.245,0.573,5.363-0.479,7.661-1.915c2.298-1.436,5.658-2.297,8.239-1.148s10.241,4.689,13.498,2.488
				c3.256-2.202,3.351-7.182,3.159-10.438c-0.189-3.254,2.015-7.957,8.139-7.47c6.124,0.489-1.914-3.254-3.83-4.499
				c-1.914-1.246-21.353-13.502-26.619-11.491C54.556,52.757,43.284,66.165,40.097,66.737z"/>
		</g>
		<g>
			<defs>
				<path id="SVGID_5_" d="M24.967,75.165c0.575-1.053,3.543-6.32,4.118-7.086c0.575-0.768,0.958-0.768,1.724-0.768
					s17.714,0.48,18.768,0.48c1.053,0,1.532-1.056,2.106-1.918c0.575-0.86,10.151-13.979,10.151-13.979s44.24,24.413,45.387,24.941
					c1.147,0.527,1.437,0.912,0,0.912s-3.542,0-4.404,0c-0.86,0-1.053-0.097-1.724,0.957c-0.67,1.055-6.225,10.532-6.799,11.203
					c-0.574,0.67-0.862,0.959-2.299,0.766c-1.437-0.189-12.64-0.86-14.076-1.051c-1.436-0.193-1.436,0.211-2.297,1.11
					c-0.863,0.899-6.492,7.026-6.98,7.603c-0.489,0.572-1.525,1.055-2.779,0.479c-1.254-0.572-38.79-21.357-39.938-21.979
					c-1.149-0.621-1.296-0.422-0.958-1.353"/>
			</defs>
			<clipPath id="SVGID_6_">
				<use xlink:href="#SVGID_5_"  overflow="visible"/>
			</clipPath>
			<path clip-path="url(#SVGID_6_)" fill="#7CE5E2" d="M65.864,86.75c1.705,0.342,4.108,2.013,3.917,4.213
				c-0.189,2.201-3.159,4.406-5.074,4.119c-1.916-0.287-4.693-2.203-4.118-4.598C61.163,88.09,63.001,86.176,65.864,86.75z"/>
		</g>
		<g>
			<defs>
				<path id="SVGID_7_" d="M24.967,75.165c0.575-1.053,3.543-6.32,4.118-7.086c0.575-0.768,0.958-0.768,1.724-0.768
					s17.714,0.48,18.768,0.48c1.053,0,1.532-1.056,2.106-1.918c0.575-0.86,10.151-13.979,10.151-13.979s44.24,24.413,45.387,24.941
					c1.147,0.527,1.437,0.912,0,0.912s-3.542,0-4.404,0c-0.86,0-1.053-0.097-1.724,0.957c-0.67,1.055-6.225,10.532-6.799,11.203
					c-0.574,0.67-0.862,0.959-2.299,0.766c-1.437-0.189-12.64-0.86-14.076-1.051c-1.436-0.193-1.436,0.211-2.297,1.11
					c-0.863,0.899-6.492,7.026-6.98,7.603c-0.489,0.572-1.525,1.055-2.779,0.479c-1.254-0.572-38.79-21.357-39.938-21.979
					c-1.149-0.621-1.296-0.422-0.958-1.353"/>
			</defs>
			<clipPath id="SVGID_8_">
				<use xlink:href="#SVGID_7_"  overflow="visible"/>
			</clipPath>
			<path clip-path="url(#SVGID_8_)" fill="#7CE5E2" d="M104.432,72.101c-4.392-0.692-7.744-0.479-9.371,0
				c-1.629,0.478-2.489,2.135-2.489,4.131s-1.818,3.72-1.533,6.976c0.289,3.258,3.762,10.763,6.683,8.141
				c3.946-3.543,18.444-9.232,16.683-11.012C112.639,78.555,108.069,72.674,104.432,72.101z"/>
		</g>
		<g>
			<defs>
				<path id="SVGID_9_" d="M24.967,75.165c0.575-1.053,3.543-6.32,4.118-7.086c0.575-0.768,0.958-0.768,1.724-0.768
					s17.714,0.48,18.768,0.48c1.053,0,1.532-1.056,2.106-1.918c0.575-0.86,10.151-13.979,10.151-13.979s44.24,24.413,45.387,24.941
					c1.147,0.527,1.437,0.912,0,0.912s-3.542,0-4.404,0c-0.86,0-1.053-0.097-1.724,0.957c-0.67,1.055-6.225,10.532-6.799,11.203
					c-0.574,0.67-0.862,0.959-2.299,0.766c-1.437-0.189-12.64-0.86-14.076-1.051c-1.436-0.193-1.436,0.211-2.297,1.11
					c-0.863,0.899-6.492,7.026-6.98,7.603c-0.489,0.572-1.525,1.055-2.779,0.479c-1.254-0.572-38.79-21.357-39.938-21.979
					c-1.149-0.621-1.296-0.422-0.958-1.353"/>
			</defs>
			<clipPath id="SVGID_10_">
				<use xlink:href="#SVGID_9_"  overflow="visible"/>
			</clipPath>
			<path clip-path="url(#SVGID_10_)" fill="#66BF8A" d="M51.109,64.536c0,0,1.627,2.299,1.34,3.83
				c-0.287,1.53-2.106,2.014-3.734,1.725c-1.627-0.287-5.266-1.532-6.99-1.629c-1.724-0.096-5.459-0.703-6.511,1.707
				c-1.054,2.41-1.149,6.434,1.628,7.582c2.777,1.148,4.596-1.34,7.181,0c2.586,1.34,3.256,4.213,6.703,4.883
				c3.447,0.672,5.937-3.543,9.767-3.639c3.831-0.096,12.002,5.578,15.225,3.711c5.744-3.328,3.447-13.668,5.555-15.201
				c2.107-1.531,2.777-2.682,8.904-0.86c6.129,1.817,5.08-1.337,0.287-3.474C85.673,61.032,65.569,45.672,60.589,47.3
				C55.609,48.927,49.768,60.706,51.109,64.536z"/>
		</g>
		<g>
			<defs>
				<path id="SVGID_11_" d="M24.967,75.165c0.575-1.053,3.543-6.32,4.118-7.086c0.575-0.768,0.958-0.768,1.724-0.768
					s17.714,0.48,18.768,0.48c1.053,0,1.532-1.056,2.106-1.918c0.575-0.86,10.151-13.979,10.151-13.979s44.24,24.413,45.387,24.941
					c1.147,0.527,1.437,0.912,0,0.912s-3.542,0-4.404,0c-0.86,0-1.053-0.097-1.724,0.957c-0.67,1.055-6.225,10.532-6.799,11.203
					c-0.574,0.67-0.862,0.959-2.299,0.766c-1.437-0.189-12.64-0.86-14.076-1.051c-1.436-0.193-1.436,0.211-2.297,1.11
					c-0.863,0.899-6.492,7.026-6.98,7.603c-0.489,0.572-1.525,1.055-2.779,0.479c-1.254-0.572-38.79-21.357-39.938-21.979
					c-1.149-0.621-1.296-0.422-0.958-1.353"/>
			</defs>
			<clipPath id="SVGID_12_">
				<use xlink:href="#SVGID_11_"  overflow="visible"/>
			</clipPath>
			<path clip-path="url(#SVGID_12_)" fill="#66BF8A" d="M98.221,88.377c-2.507-0.223-4.31-5.646-4.31-8.905
				c0-3.257-0.119-6.374,3.256-6.319c3.373,0.057,5.268-1.15,7.564,0c2.298,1.148,6.126,4.405,5.359,5.746
				C109.33,80.239,101.001,88.625,98.221,88.377z"/>
		</g>
		<g>
			<defs>
				<path id="SVGID_13_" d="M24.967,75.165c0.575-1.053,3.543-6.32,4.118-7.086c0.575-0.768,0.958-0.768,1.724-0.768
					s17.714,0.48,18.768,0.48c1.053,0,1.532-1.056,2.106-1.918c0.575-0.86,10.151-13.979,10.151-13.979s44.24,24.413,45.387,24.941
					c1.147,0.527,1.437,0.912,0,0.912s-3.542,0-4.404,0c-0.86,0-1.053-0.097-1.724,0.957c-0.67,1.055-6.225,10.532-6.799,11.203
					c-0.574,0.67-0.862,0.959-2.299,0.766c-1.437-0.189-12.64-0.86-14.076-1.051c-1.436-0.193-1.436,0.211-2.297,1.11
					c-0.863,0.899-6.492,7.026-6.98,7.603c-0.489,0.572-1.525,1.055-2.779,0.479c-1.254-0.572-38.79-21.357-39.938-21.979
					c-1.149-0.621-1.296-0.422-0.958-1.353"/>
			</defs>
			<clipPath id="SVGID_14_">
				<use xlink:href="#SVGID_13_"  overflow="visible"/>
			</clipPath>
			<path clip-path="url(#SVGID_14_)" fill="#8CD3A9" d="M64.707,88.377c1.679-0.387,4.021,1.246,3.447,2.97
				c-0.575,1.724-2.265,2.866-4.501,2.394c-2.236-0.474-1.915-2.968-1.34-3.926S63.462,88.665,64.707,88.377z"/>
		</g>
		<g>
			<defs>
				<path id="SVGID_15_" d="M24.967,75.165c0.575-1.053,3.543-6.32,4.118-7.086c0.575-0.768,0.958-0.768,1.724-0.768
					s17.714,0.48,18.768,0.48c1.053,0,1.532-1.056,2.106-1.918c0.575-0.86,10.151-13.979,10.151-13.979s44.24,24.413,45.387,24.941
					c1.147,0.527,1.437,0.912,0,0.912s-3.542,0-4.404,0c-0.86,0-1.053-0.097-1.724,0.957c-0.67,1.055-6.225,10.532-6.799,11.203
					c-0.574,0.67-0.862,0.959-2.299,0.766c-1.437-0.189-12.64-0.86-14.076-1.051c-1.436-0.193-1.436,0.211-2.297,1.11
					c-0.863,0.899-6.492,7.026-6.98,7.603c-0.489,0.572-1.525,1.055-2.779,0.479c-1.254-0.572-38.79-21.357-39.938-21.979
					c-1.149-0.621-1.296-0.422-0.958-1.353"/>
			</defs>
			<clipPath id="SVGID_16_">
				<use xlink:href="#SVGID_15_"  overflow="visible"/>
			</clipPath>
			<path clip-path="url(#SVGID_16_)" fill="#8CD3A9" d="M38.661,70.758c1.062-1.157,5.361-1.529,6.606-0.67
				c1.245,0.863,2.778,2.777,0.48,3.16s-4.692,2.012-5.746,1.244C38.948,73.728,37.607,71.907,38.661,70.758z"/>
		</g>
		<g>
			<defs>
				<path id="SVGID_17_" d="M24.967,75.165c0.575-1.053,3.543-6.32,4.118-7.086c0.575-0.768,0.958-0.768,1.724-0.768
					s17.714,0.48,18.768,0.48c1.053,0,1.532-1.056,2.106-1.918c0.575-0.86,10.151-13.979,10.151-13.979s44.24,24.413,45.387,24.941
					c1.147,0.527,1.437,0.912,0,0.912s-3.542,0-4.404,0c-0.86,0-1.053-0.097-1.724,0.957c-0.67,1.055-6.225,10.532-6.799,11.203
					c-0.574,0.67-0.862,0.959-2.299,0.766c-1.437-0.189-12.64-0.86-14.076-1.051c-1.436-0.193-1.436,0.211-2.297,1.11
					c-0.863,0.899-6.492,7.026-6.98,7.603c-0.489,0.572-1.525,1.055-2.779,0.479c-1.254-0.572-38.79-21.357-39.938-21.979
					c-1.149-0.621-1.296-0.422-0.958-1.353"/>
			</defs>
			<clipPath id="SVGID_18_">
				<use xlink:href="#SVGID_17_"  overflow="visible"/>
			</clipPath>
			<path clip-path="url(#SVGID_18_)" fill="#8CD3A9" d="M56.088,62.713c0.712-4.099,4.021-6.987,8.139-6.414
				c4.117,0.575,8.714,2.777,9.289,6.703c0.573,3.927,4.31,5.381,3.831,9.154c-0.48,3.771-2.971,4.819-5.555,4.68
				c-2.586-0.14-4.588-3.012-6.316-3.875c-1.729-0.86-4.984-1.326-7.282-3.346C55.896,67.599,55.706,64.917,56.088,62.713z"/>
		</g>
		<g>
			<defs>
				<path id="SVGID_19_" d="M24.967,75.165c0.575-1.053,3.543-6.32,4.118-7.086c0.575-0.768,0.958-0.768,1.724-0.768
					s17.714,0.48,18.768,0.48c1.053,0,1.532-1.056,2.106-1.918c0.575-0.86,10.151-13.979,10.151-13.979s44.24,24.413,45.387,24.941
					c1.147,0.527,1.437,0.912,0,0.912s-3.542,0-4.404,0c-0.86,0-1.053-0.097-1.724,0.957c-0.67,1.055-6.225,10.532-6.799,11.203
					c-0.574,0.67-0.862,0.959-2.299,0.766c-1.437-0.189-12.64-0.86-14.076-1.051c-1.436-0.193-1.436,0.211-2.297,1.11
					c-0.863,0.899-6.492,7.026-6.98,7.603c-0.489,0.572-1.525,1.055-2.779,0.479c-1.254-0.572-38.79-21.357-39.938-21.979
					c-1.149-0.621-1.296-0.422-0.958-1.353"/>
			</defs>
			<clipPath id="SVGID_20_">
				<use xlink:href="#SVGID_19_"  overflow="visible"/>
			</clipPath>
			<path clip-path="url(#SVGID_20_)" fill="#8CD3A9" d="M63.652,91.442c-0.413-1.378,2.25-2.201,2.849-1.438
				c0.599,0.769-0.254,2.014-1.024,2.205C64.707,92.4,63.94,92.4,63.652,91.442z"/>
		</g>
		<g>
			<defs>
				<path id="SVGID_21_" d="M24.967,75.165c0.575-1.053,3.543-6.32,4.118-7.086c0.575-0.768,0.958-0.768,1.724-0.768
					s17.714,0.48,18.768,0.48c1.053,0,1.532-1.056,2.106-1.918c0.575-0.86,10.151-13.979,10.151-13.979s44.24,24.413,45.387,24.941
					c1.147,0.527,1.437,0.912,0,0.912s-3.542,0-4.404,0c-0.86,0-1.053-0.097-1.724,0.957c-0.67,1.055-6.225,10.532-6.799,11.203
					c-0.574,0.67-0.862,0.959-2.299,0.766c-1.437-0.189-12.64-0.86-14.076-1.051c-1.436-0.193-1.436,0.211-2.297,1.11
					c-0.863,0.899-6.492,7.026-6.98,7.603c-0.489,0.572-1.525,1.055-2.779,0.479c-1.254-0.572-38.79-21.357-39.938-21.979
					c-1.149-0.621-1.296-0.422-0.958-1.353"/>
			</defs>
			<clipPath id="SVGID_22_">
				<use xlink:href="#SVGID_21_"  overflow="visible"/>
			</clipPath>
			<path clip-path="url(#SVGID_22_)" fill="#8CD3A9" d="M98.507,84.834c-2.529-0.809-1.82-6.422-0.768-7.998
				c1.055-1.576,5.877-2.433,8.858-1.352c2.981,1.08,3.782,4.206,2.442,4.434C107.701,80.144,100.901,85.601,98.507,84.834z"/>
		</g>
	</g>
	<g>
		<g>
			<defs>
				<path id="SVGID_23_" d="M67.483,111.168c-1.214-0.637-56.975-30.645-58.412-31.217c-1.437-0.576-1.149-0.767,0-2.3
					c1.149-1.53,12.161-15.702,12.64-16.756c0.479-1.054,0.671-1.438,2.203-1.341c1.532,0.096,15.896,0.671,17.14,0.767
					c1.245,0.095,1.819-0.575,2.203-1.245c0.383-0.671,14.842-17.046,14.842-17.046s59.561,36.963,67.412,40.889
					c7.853,3.925,1.054,2.488-1.438,1.914c-2.488-0.574-11.682-0.86-12.64-0.957c-0.957-0.096-1.437,0-2.011,1.054
					c-0.575,1.054-5.746,10.247-6.225,11.301c-0.48,1.052-0.574,1.724-2.203,1.53c-1.627-0.191-14.074-2.202-15.225-2.393
					c-1.15-0.193-1.245-0.287-2.012,0.573c-0.766,0.861-13.022,13.597-13.789,14.746C69.207,111.838,68.85,111.883,67.483,111.168z"
					/>
			</defs>
			<clipPath id="SVGID_24_">
				<use xlink:href="#SVGID_23_"  overflow="visible"/>
			</clipPath>
			<path opacity="0.28" clip-path="url(#SVGID_24_)" fill="#496362" enable-background="new    " d="M20.214,59.078L84.718,95.25
				l18.195,3.826l-0.508-1.512L41.054,59.078C41.054,59.078,24.462,57.545,20.214,59.078z"/>
		</g>
		<g>
			<defs>
				<path id="SVGID_25_" d="M67.483,111.168c-1.214-0.637-56.975-30.645-58.412-31.217c-1.437-0.576-1.149-0.767,0-2.3
					c1.149-1.53,12.161-15.702,12.64-16.756c0.479-1.054,0.671-1.438,2.203-1.341c1.532,0.096,15.896,0.671,17.14,0.767
					c1.245,0.095,1.819-0.575,2.203-1.245c0.383-0.671,14.842-17.046,14.842-17.046s59.561,36.963,67.412,40.889
					c7.853,3.925,1.054,2.488-1.438,1.914c-2.488-0.574-11.682-0.86-12.64-0.957c-0.957-0.096-1.437,0-2.011,1.054
					c-0.575,1.054-5.746,10.247-6.225,11.301c-0.48,1.052-0.574,1.724-2.203,1.53c-1.627-0.191-14.074-2.202-15.225-2.393
					c-1.15-0.193-1.245-0.287-2.012,0.573c-0.766,0.861-13.022,13.597-13.789,14.746C69.207,111.838,68.85,111.883,67.483,111.168z"
					/>
			</defs>
			<clipPath id="SVGID_26_">
				<use xlink:href="#SVGID_25_"  overflow="visible"/>
			</clipPath>
			<path opacity="0.26" clip-path="url(#SVGID_26_)" fill="#3E7C76" enable-background="new    " d="M111.346,85.963
				c0,0,0.118-2.678-3.152-4.868c-3.271-2.188-59.389-33.126-59.389-33.126h21.071l8.617,6.129l50.69,30.259l0.922,1.341
				l-1.915,0.575l-13.404-1.532l-3.353-0.861L111.346,85.963z"/>
		</g>
		<g>
			<defs>
				<path id="SVGID_27_" d="M67.483,111.168c-1.214-0.637-56.975-30.645-58.412-31.217c-1.437-0.576-1.149-0.767,0-2.3
					c1.149-1.53,12.161-15.702,12.64-16.756c0.479-1.054,0.671-1.438,2.203-1.341c1.532,0.096,15.896,0.671,17.14,0.767
					c1.245,0.095,1.819-0.575,2.203-1.245c0.383-0.671,14.842-17.046,14.842-17.046s59.561,36.963,67.412,40.889
					c7.853,3.925,1.054,2.488-1.438,1.914c-2.488-0.574-11.682-0.86-12.64-0.957c-0.957-0.096-1.437,0-2.011,1.054
					c-0.575,1.054-5.746,10.247-6.225,11.301c-0.48,1.052-0.574,1.724-2.203,1.53c-1.627-0.191-14.074-2.202-15.225-2.393
					c-1.15-0.193-1.245-0.287-2.012,0.573c-0.766,0.861-13.022,13.597-13.789,14.746C69.207,111.838,68.85,111.883,67.483,111.168z"
					/>
			</defs>
			<clipPath id="SVGID_28_">
				<use xlink:href="#SVGID_27_"  overflow="visible"/>
			</clipPath>
			<path opacity="0.41" clip-path="url(#SVGID_28_)" fill="#BDF9F4" enable-background="new    " d="M15.2,67.504
				c0,0,67.795,26.811,69.904,28.152l-64.89-36.58L15.2,67.504z"/>
		</g>
		<g>
			<defs>
				<path id="SVGID_29_" d="M67.483,111.168c-1.214-0.637-56.975-30.645-58.412-31.217c-1.437-0.576-1.149-0.767,0-2.3
					c1.149-1.53,12.161-15.702,12.64-16.756c0.479-1.054,0.671-1.438,2.203-1.341c1.532,0.096,15.896,0.671,17.14,0.767
					c1.245,0.095,1.819-0.575,2.203-1.245c0.383-0.671,14.842-17.046,14.842-17.046s59.561,36.963,67.412,40.889
					c7.853,3.925,1.054,2.488-1.438,1.914c-2.488-0.574-11.682-0.86-12.64-0.957c-0.957-0.096-1.437,0-2.011,1.054
					c-0.575,1.054-5.746,10.247-6.225,11.301c-0.48,1.052-0.574,1.724-2.203,1.53c-1.627-0.191-14.074-2.202-15.225-2.393
					c-1.15-0.193-1.245-0.287-2.012,0.573c-0.766,0.861-13.022,13.597-13.789,14.746C69.207,111.838,68.85,111.883,67.483,111.168z"
					/>
			</defs>
			<clipPath id="SVGID_30_">
				<use xlink:href="#SVGID_29_"  overflow="visible"/>
			</clipPath>
			<path opacity="0.41" clip-path="url(#SVGID_30_)" fill="#BDF9F4" enable-background="new    " d="M109.533,82.194
				c-3.652-2.604-60.728-32.788-60.728-32.788l-3.729,5.65c0,0,62.816,26.622,64.347,28.344
				C110.958,85.124,113.183,84.799,109.533,82.194z"/>
		</g>
	</g>
	<path fill="#FFFFFF" stroke="#544941" stroke-width="3" stroke-linecap="round" stroke-linejoin="round" d="M77.21,14.037
		L77.21,14.037l-0.01-0.007c-0.058-0.035-0.119-0.067-0.18-0.101c-1.123-0.64-7.376-4.192-7.619-4.265
		c-1.758-0.527-3.698-0.491-5.751,0.235c-9.094,3.214-15.042,15.186-14.84,27.25c0.191,11.396,2.78,13.437,7.565,21.641
		c4.169,7.149,5.144,14.921,6.092,16.296v0.002l0.001,0.002c0.104,0.15,0.208,0.201,0.317,0.187l5.365,3.146
		c0.16,0.277,0.319,0.397,0.49,0.285c1.157-0.767,1.618-12.256,5.499-20.464c3.947-8.35,10.1-14.012,10.1-27.892
		C84.242,22.837,81.466,16.618,77.21,14.037z"/>
	<path fill="#BA8E67" stroke="#937455" stroke-linecap="round" stroke-linejoin="round" d="M78.496,26.903
		c0-3.653-0.66-6.993-1.824-9.765l0.541-3.103c0,0-7.543-4.292-7.811-4.372c-1.758-0.527-3.698-0.491-5.751,0.235
		c-9.094,3.214-15.042,15.186-14.84,27.25c0.191,11.396,2.78,13.437,7.565,21.641c4.169,7.149,5.144,14.922,6.092,16.295v0.004
		l0.001,0.002c0.104,0.148,0.208,0.199,0.317,0.186l5.855,3.432l0.753-19.822l1.536-8.812
		C74.537,43.886,78.496,38.039,78.496,26.903z"/>
	<path fill="#E8BB74" stroke="#937455" d="M54.556,40.597c-0.203-12.064,5.745-24.035,14.84-27.25
		c8.359-2.955,14.846,5.513,14.846,17.003c0,13.88-6.152,19.542-10.101,27.892c-3.882,8.209-4.341,19.699-5.499,20.465
		c-1.16,0.765-1.736-8.267-6.522-16.471C57.335,54.033,54.747,51.993,54.556,40.597z"/>
	
		<path opacity="0.65" fill="#F9CCC7" stroke="#937455" stroke-linecap="round" stroke-linejoin="round" enable-background="new    " d="
		M61.738,38.394c-0.104-9.097,3.351-14.843,8.424-15.896c5.17-1.073,7.854,5.554,7.854,11.107c0,5.554-3.065,15.321-8.14,16.494
		C65.341,51.147,61.834,46.82,61.738,38.394z"/>
</g>
</svg>
