<?xml version="1.0" encoding="utf-8"?>
<!-- Generator: Adobe Illustrator 14.0.0, SVG Export Plug-In . SVG Version: 6.00 Build 43363)  -->
<!DOCTYPE svg PUBLIC "-//W3C//DTD SVG 1.1//EN" "http://www.w3.org/Graphics/SVG/1.1/DTD/svg11.dtd">
<svg version="1.1" id="Layer_1" xmlns="http://www.w3.org/2000/svg" xmlns:xlink="http://www.w3.org/1999/xlink" x="0px" y="0px"
	 width="136.667px" height="119.333px" viewBox="0 0 136.667 119.333" enable-background="new 0 0 136.667 119.333"
	 xml:space="preserve">
<g id="Layer_3">
	<g opacity="0.19">
		<path fill="#F9CCC7" d="M54.897,113.881c-12.231-0.174-26.514-5.577-26.514-20.235c0-4.306-0.059-11.127-0.122-18.349l-0.005-0.61
			c-0.604-1.117-0.834-2.038-0.958-2.528c-0.118-0.475-0.57-4.207,0.212-6.846c-0.386-1.807-0.857-4.723-0.362-6.527
			c0.153-0.558,0.453-1.46,0.965-2.333c-0.11-19.789,0.108-22.473,0.342-23.507c1.113-4.931,7.46-6.632,12.095-7.874
			c0.851-0.228,1.628-0.435,2.257-0.639c0.278-0.09,0.905-0.38,1.648-0.742c-0.726-0.513-1.356-0.852-1.756-0.998
			c-1.952-0.718-2.584-2.391-2.346-3.729c0.33-1.851,1.486-3.659,11.176-3.787c0.253-5.247,1.207-7.184,3.456-7.598
			c0.18-0.033,0.409-0.054,0.592-0.054c2.306,0,5.407,2.993,7.831,6.504c8.69-4.211,11.445-4.828,13.073-4.828
			c0.892,0,1.669,0.215,2.315,0.639c3.822,2.503,3.797,5.625,3.76,10.351c-0.002,0.211-0.003,0.428-0.006,0.652
			c1.711,1.142,6.062,3.343,9.998,3.343c0.447,0,0.879-0.03,1.283-0.088c1.547-0.648,6.192-2.496,8.93-2.496
			c0.641,0,1.201,0.087,1.716,0.267c2.874,1.007,6.176,3.733,6.028,8.104c-0.072,2.099-0.028,28.372-0.008,40.998
			c0.008,3.98,0.012,6.975,0.012,8.119c0,0.582,0.016,1.13,0.029,1.65c0.131,5.036-0.33,8.627-7.666,12.495
			c-1.602,0.843-39.275,20.646-47.876,20.646C54.998,113.881,54.912,113.881,54.897,113.881z"/>
		<path fill="#5CA5BC" d="M55.579,10.525c0.738,0,3.936,2.451,6.729,7.389c6.172-3.074,12-5.713,14.175-5.713
			c0.292,0,0.519,0.047,0.67,0.147c2.779,1.82,2.396,3.728,2.396,9.768c0,0.707,6.771,5.071,13.002,5.071
			c0.722,0,1.435-0.059,2.129-0.188c0,0,5.564-2.397,8.085-2.397c0.284,0,0.53,0.031,0.725,0.099
			c1.915,0.671,4.115,2.395,4.021,5.171c-0.096,2.777,0.004,44.144,0.004,49.218c0,5.078,1.049,7.757-6.037,11.492
			c-7.064,3.723-39.553,20.301-46.477,20.301c-0.02,0-0.04,0-0.059,0c-6.799-0.098-23.556-2.489-23.556-17.236
			c0-4.596-0.065-11.871-0.134-19.798c-0.688-1.035-0.905-1.879-1.04-2.418c-0.359-1.437-0.104-5.46,0.431-5.892
			c0,0-1.051-4.308-0.598-5.958c0.236-0.858,0.637-1.707,1.077-2.192c-0.071-12.032-0.056-22.369,0.263-23.782
			c0.881-3.903,8.81-5.171,12.352-6.32c0.843-0.273,3.027-1.369,5.892-2.85c-2.092-2.545-4.586-4.08-5.892-4.56
			c-1.603-0.589,1.266-1.707,8.916-1.707c0.576,0,1.179,0.006,1.809,0.02c0,0,0.036-7.47,1.071-7.661
			C55.546,10.526,55.562,10.525,55.579,10.525 M55.58,4.525L55.58,4.525c-0.369,0-0.783,0.038-1.145,0.105
			c-4.244,0.782-5.299,4.711-5.652,7.612c-5.799,0.265-10.533,1.433-11.381,6.195c-0.265,1.491,0.021,2.949,0.74,4.181
			c-4.945,1.384-11.254,3.655-12.611,9.667c-0.249,1.1-0.53,2.348-0.42,23.434c-0.431,0.887-0.7,1.711-0.853,2.271
			c-0.57,2.075-0.292,4.849,0.171,7.233c-0.824,3.604-0.055,7.604-0.041,7.661c0.12,0.479,0.348,1.393,0.874,2.521
			c0.062,7.184,0.121,13.963,0.121,18.239c0,16.841,15.876,23.042,29.471,23.235h0.144c2.854,0,8.143-1.105,25.725-9.316
			c9.704-4.531,19.647-9.619,23.55-11.676c8.816-4.646,9.413-9.646,9.268-15.229c-0.014-0.496-0.027-1.019-0.027-1.57
			c0-1.146-0.006-4.143-0.012-8.125c-0.021-12.608-0.065-38.845,0.004-40.887c0.168-4.94-2.985-9.272-8.033-11.04
			c-0.827-0.29-1.737-0.436-2.708-0.436c-3.021,0-7.356,1.601-9.694,2.564c-0.165,0.013-0.339,0.02-0.52,0.02
			c-2.398,0-5.197-1.12-6.984-2.053c0.01-4.474-0.316-8.656-5.125-11.805c-1.141-0.748-2.473-1.128-3.957-1.128
			c-2.122,0-5.057,0.74-12.144,4.061C62.085,7.46,58.926,4.525,55.58,4.525L55.58,4.525z"/>
	</g>
	<path fill="#FFFFFF" stroke="#000000" stroke-width="4" d="M107.512,79.09c0-5.075-0.099-46.442-0.003-49.219
		c0.094-2.776-2.106-4.5-4.021-5.171c-1.916-0.67-8.81,2.298-8.81,2.298c-6.702,1.245-15.13-4.095-15.13-4.883
		c0-6.04,0.384-7.948-2.396-9.768c-1.29-0.846-7.846,2.08-14.845,5.565c-2.858-5.053-6.141-7.502-6.777-7.385
		c-1.036,0.191-1.071,7.661-1.071,7.661c-9.001-0.191-12.448,1.053-10.725,1.687c1.306,0.479,3.8,2.014,5.892,4.56
		c-2.865,1.481-5.049,2.577-5.892,2.85c-3.542,1.149-11.471,2.417-12.352,6.32c-0.319,1.413-0.334,11.75-0.263,23.782
		c-0.44,0.485-0.841,1.334-1.077,2.192c-0.454,1.652,0.598,5.958,0.598,5.958c-0.534,0.432-0.79,4.455-0.431,5.892
		c0.135,0.538,0.352,1.383,1.04,2.418c0.068,7.927,0.134,15.202,0.134,19.798c0,14.747,16.757,17.141,23.556,17.236
		c6.799,0.095,39.452-16.567,46.536-20.301C108.561,86.846,107.512,84.167,107.512,79.09z"/>
	<path fill="#697751" d="M31.383,33.606c0.881-3.903,8.81-5.171,12.352-6.32c3.543-1.148,30.642-16.757,33.417-14.938
		c2.779,1.82,2.396,3.728,2.396,9.768c0,0.788,8.428,6.128,15.13,4.883c0,0,6.894-2.969,8.81-2.298
		c1.915,0.671,4.115,2.395,4.021,5.171c-0.096,2.777,0.003,44.144,0.003,49.218c0,5.078,1.049,7.757-6.037,11.492
		c-7.084,3.732-39.737,20.396-46.536,20.301c-6.799-0.098-23.556-2.489-23.556-17.236S30.713,36.575,31.383,33.606z"/>
	<path opacity="0.58" fill="#E5ED94" enable-background="new    " d="M32.179,36.977l-0.004-0.001c0,0,0.494,55.616,0.521,57.483
		c0.027,1.867,0.506,5.314,3.091,8.188c2.586,2.872,11.54,7.995,21.977,6.368c2.729-0.479,2.298-1.484,2.395-1.866
		c0.096-0.386-0.359-50.319-0.359-51.754c0-1.436,0.312-7.281,1.747-8.383C58.757,48.361,37.375,53.087,32.179,36.977z"/>
	<path opacity="0.59" fill="#E5ED94" enable-background="new    " d="M65.288,45.959c3.608-1.244,34.991-15.031,36.906-15.51
		s4.022-1.392,4.022,1.433c0,2.825,0,43.904,0,47.542c0,3.64,1.006,6.514-3.733,9.146c-4.741,2.634-27.913,15.226-40.219,18.291
		c0,0-1.029-46.659-1.029-49.867C61.235,53.787,59.59,47.922,65.288,45.959z"/>
	<path opacity="0.66" fill="#918269" enable-background="new    " d="M70.833,49.358c2-0.747,24.18-9.192,25.951-9.863
		c1.771-0.67,2.823-0.287,2.823,2.203c0,2.489-0.334,34.519-0.334,36.148c0,1.626,0.235,3.925-2.252,5.361
		c-2.487,1.436-23.172,12.065-25.183,12.736c-2.012,0.672-3.112-0.431-3.16-3.018c-0.048-2.584-0.67-34.423-0.67-37.248
		C68.01,52.854,68.53,50.219,70.833,49.358z"/>
	<path fill="#E2DACF" d="M71.649,50.22c1.845-0.686,23.076-8.953,24.656-9.432c1.579-0.479,2.202-1.102,2.202,1.244
		c0,2.348-0.383,33.947-0.383,36.675c0,2.729-0.72,3.16-2.776,4.311c-2.058,1.15-20.589,10.531-22.407,11.348
		c-1.818,0.814-2.872,1.195-2.919-1.005c-0.049-2.204-0.862-33.42-1.007-36.964C68.873,52.854,69.533,51.006,71.649,50.22z"/>
	<path opacity="0.58" fill="#E5ED94" enable-background="new    " d="M32.867,33.587c0.718-1.058,6.419-4.003,10.439-5.008
		c4.021-1.005,17.618-8.091,20.059-9.624c2.441-1.533,12.099-6.271,13.681-5.123c1.578,1.15,1.306,7.277,1.306,7.277
		s-0.91-1.102-1.103-1.724c-0.189-0.622-0.385-1.053-1.58-0.622c-1.194,0.431-16.565,7.133-20.396,8.81
		c-3.83,1.676-16.086,6.032-16.613,7.086c-0.527,1.054,1.867,6.416,7.66,8.283c5.793,1.867,6.751,1.148,11.443-0.432
		c4.692-1.58,34.089-13.645,37.438-14.794c3.354-1.149,9.098-4.371,11.014,0.974c0,0-1.916-0.256-4.549,0.654
		c-2.633,0.91-35.286,14.65-39.403,16.087c-4.117,1.437-12.305,3.159-19.917,0.143C34.734,42.559,32.101,34.717,32.867,33.587z"/>
	<path fill="#E2DABA" d="M40.192,35.138c1.054-0.766,11.06-4.691,13.645-5.697c2.586-1.005,20.588-8.954,21.211-9.288
		c0.621-0.335,0.908-0.383,1.437,0.526c0.524,0.91,4.97,5.74,14.507,7.421c0,0-33.077,14.332-37.595,14.618
		c-4.518,0.287-9.444-1.202-12.257-4.463C38.326,34.995,40.192,35.138,40.192,35.138z"/>
	<path fill="#918269" d="M38.487,63.004c5.307,3.009,11.601,4.398,22.848,0.021c0,0,0.904,4.886,0.151,7.543
		c0,0,0.777,2.585,0.299,7.685c0,0-12.524,5.521-21.406,1.856c-8.882-3.665-9.81-7.241-10.169-8.679s-0.104-5.46,0.431-5.891
		c0,0-1.051-4.309-0.598-5.959c0.454-1.652,1.515-3.301,2.313-2.297C33.154,58.287,34.433,60.708,38.487,63.004z"/>
	<path opacity="0.52" fill="#C9A459" enable-background="new    " d="M31.861,58.862c0,0,2.965,5.049,7.469,6.71
		c10.271,3.786,20.749-0.821,20.749-0.821s1.012,2.371,0.366,5.531c0,0-14.54,4.523-22.264,0.143
		c-7.724-4.381-6.679-5.241-6.679-5.241S30.569,60.441,31.861,58.862z"/>
	<path opacity="0.52" fill="#C9A459" enable-background="new    " d="M31.431,66.977c0,0,0.973,2.527,7.828,5.355
		c6.855,2.832,20.82-0.399,20.82-0.399s0.725,2.657,0.15,5.673c0,0-11.131,5.172-20.324,0.646c-9.193-4.524-8.26-5.674-8.475-6.394
		C31.215,71.142,30.973,67.862,31.431,66.977z"/>
	<path fill="#AF8D69" d="M53.31,37.245c0,0-2.536,1.053-3.159,1.293c0,0,1.245,0.766,5.65-1.053
		c4.404-1.82,12.611-6.512,13.656-7.421c1.041-0.91,0.342-1.293,0-1.149c-0.346,0.143-6.619,3.495-7.863,3.974
		C60.35,33.367,53.957,36.977,53.31,37.245z"/>
	<path fill="#D36433" d="M53.31,37.245c0,0,0.352-5.846-1.85-10.059c-2.203-4.213-6.001-6.676-7.725-7.309
		c-1.723-0.634,1.723-1.878,10.725-1.687c0,0,0.036-7.47,1.071-7.661c1.036-0.191,9.092,6.394,10.902,20.013
		C66.434,30.542,57.572,36.335,53.31,37.245z"/>
	<path fill="#A05030" d="M53.694,29.632c-0.814-2.825-3.926-8.595-7.947-9.755c0,0,2.873-1.304,9.575-0.539
		c0,0,0.144-5.697,0.622-7.708c0,0,7.918,6.591,9.32,19.655c0.719-0.45,1.169-0.743,1.169-0.743
		c-1.81-13.62-9.867-20.205-10.902-20.013c-1.036,0.191-1.071,7.661-1.071,7.661c-9.001-0.191-12.448,1.053-10.725,1.687
		c1.724,0.633,5.522,3.096,7.725,7.309c2.202,4.213,1.85,10.059,1.85,10.059c0.303-0.064,0.634-0.16,0.978-0.269
		C54.323,35.544,54.339,31.871,53.694,29.632z"/>
	<path opacity="0.66" fill="#918269" enable-background="new    " d="M37.416,47.529c1.048,0.589,9.862,4.558,13.98,3.983
		c2.298-0.383,2.01,2.585,2.01,2.585s0.023,5.266,0.011,6.225c-0.011,0.957-0.585,2.202-2.213,2.587
		c-1.628,0.383-8.62,2.055-14.363-4.048c0,0-0.671-1.257-0.767-3.394c-0.095-2.137,0.096-5.775,0-6.733
		C35.979,47.778,36.61,47.076,37.416,47.529z"/>
	<path fill="#E2DACF" d="M37.416,48.927c0,0,6.606,4.021,13.405,4.213c0,0,1.437-0.096,1.437,1.149s0,6.127,0,6.127
		s-0.192,0.715-1.245,1.125c-1.054,0.408-9.192,1.316-12.735-2.681c-1.437-1.604-1.245-2.452-1.245-3.464s0.079-4.65-0.009-5.321
		C36.937,49.406,36.892,48.628,37.416,48.927z"/>
	
		<linearGradient id="SVGID_1_" gradientUnits="userSpaceOnUse" x1="275.4204" y1="-235.938" x2="325.7261" y2="-295.0728" gradientTransform="matrix(1 0 0 -1 -231 -201.667)">
		<stop  offset="0" style="stop-color:#FFFFFF"/>
		<stop  offset="1" style="stop-color:#000000"/>
	</linearGradient>
	<path opacity="0.11" fill="url(#SVGID_1_)" enable-background="new    " d="M107.512,79.09c0-5.075-0.099-46.442-0.003-49.219
		c0.094-2.776-2.106-4.5-4.021-5.171c-1.916-0.67-8.81,2.298-8.81,2.298c-6.702,1.245-15.13-4.095-15.13-4.883
		c0-6.04,0.384-7.948-2.396-9.768c-1.29-0.846-7.846,2.08-14.845,5.565c-2.858-5.053-6.141-7.502-6.777-7.385
		c-1.036,0.191-1.071,7.661-1.071,7.661c-9.001-0.191-12.448,1.053-10.725,1.687c1.306,0.479,3.8,2.014,5.892,4.56
		c-2.865,1.481-5.049,2.577-5.892,2.85c-3.542,1.149-11.471,2.417-12.352,6.32c-0.319,1.413-0.334,11.75-0.263,23.782
		c-0.44,0.485-0.841,1.334-1.077,2.192c-0.454,1.652,0.598,5.958,0.598,5.958c-0.534,0.432-0.79,4.455-0.431,5.892
		c0.135,0.538,0.352,1.383,1.04,2.418c0.068,7.927,0.134,15.202,0.134,19.798c0,14.747,16.757,17.141,23.556,17.236
		c6.799,0.095,39.452-16.567,46.536-20.301C108.561,86.846,107.512,84.167,107.512,79.09z"/>
</g>
</svg>
